<svg version="1.2" xmlns="http://www.w3.org/2000/svg" viewBox="0 0 500 323" width="500" height="323"><style>.a{fill:#fff}.b{fill:none;stroke:#110809;stroke-miterlimit:10;stroke-width:2}.c{fill:#ffbf00}.d{fill:none;stroke:#110809;stroke-miterlimit:10}.e{fill:#fff;stroke:#000;stroke-miterlimit:10}.f{fill:#fff;stroke:#000;stroke-miterlimit:10;stroke-width:1}.g{fill:none;stroke:#000;stroke-miterlimit:10;stroke-width:2}.h{opacity:.2;fill:#ffc200}.i{fill:none;stroke:#000;stroke-miterlimit:10}.j{fill:#ed926e}.k{fill:#a7d8eb}.l{fill:none;stroke:#ffbf00;stroke-miterlimit:10;stroke-width:3}.m{fill:#112129}</style><path class="a" d="m0-79h500v500h-500z"/><path class="b" d="m99.9 231.5h285.1"/><path class="c" d="m381.5 301.1c0 0.6-0.1 1.2-0.6 1.7-0.6 0.8-1.4 1.3-2.3 1.7-2.3 1.1-4.9 1.5-7.3 2.6-1.5 0.7-3.6 2.7-2.2 4.4 1 1.1 3.6 1 4.9 0.9q7.3-0.5 14.5-1.8c0.5 0 0.9-0.1 1.3-0.4 0.5-0.5 0.6-1.3 0.6-1.9q0.2-5.2 0.1-10.4c0-3.3-0.8-4.7-4.1-5.8-1.1-0.4-2.4-0.6-3.4 0-0.8 0.4-1.2 1.4-1.4 2.3-0.4 1.4-0.3 2.9-0.2 4.4 0 0.8 0.2 1.6 0.1 2.3z"/><path  d="m434.1 230.9c-0.2-2.1-2.5-2.9-4.3-3.8-4.3-2-9.2-2.6-13.8-1.6-5.4 1.1-10 4.3-15.2 6-6.9 2.3-13.8 4.6-20.5 7.8-2 0.9-3.9 2.2-5.6 3.7-1.8 1.7-3.3 3.5-3.7 6-0.6 3.2 0.1 6.5 0.7 9.6 0.7 3.5 1.5 7 2.1 10.5l4.7 28.9c0.1 0.6 0.7 1 1.3 0.9l13.6-3c0.6-0.1 1-0.7 0.9-1.3-0.6-2.3-1-4.6-0.7-6.9 0.1-1.3 0.5-2.7 0.6-4 0.2-3-1.3-6.1-0.4-8.9 0.2-0.8 0.6-1.5 0.8-2.3 0.2-0.9 0.1-1.8 0-2.6q-0.4-2.8-0.9-5.5c-0.2-1.4-1.1-3.4-0.9-4.8 0.4-2.8 5.1-1.8 7.2-1.8 2.6-0.1 5.3-0.2 7.9-0.4 5.4-0.5 10.7-1.6 15.4-4.2 2.6-1.5 4-4.8 5.3-7.3 1.6-3.1 2.8-6.4 3.9-9.7 0.5-1.6 1.8-3.6 1.6-5.3z"/><path class="d" d="m206.5 234.7h105.9"/><path class="d" d="m122 234.7h31.6"/><path class="e" d="m120.6 33.9l37.1 56.2c0.9 1.3 0.5 3-0.8 3.9l-0.2 0.2c-1.3 0.8-3 0.4-3.9-0.8l-37.1-56.2c-0.8-1.3-0.5-3 0.8-3.9l0.2-0.2c1.3-0.8 3.1-0.4 3.9 0.8z"/><path  d="m186.2 134.2c-13.9 10.8-34 8.3-44.8-5.7-10.9-14-8.3-34 5.6-44.9 14-10.8 34.1-8.3 44.9 5.7 10.9 14 8.3 34-5.7 44.9z"/><path class="f" d="m191.2 113.6c-2.6 13.5-15.7 22.4-29.2 19.8-13.6-2.6-22.4-15.6-19.9-29.2 2.6-13.5 15.7-22.4 29.2-19.8 13.6 2.6 22.5 15.6 19.9 29.2z"/><path class="g" d="m185.9 111c-1.2 10.6-10.7 18.3-21.3 17.1"/><path class="h" d="m244.1 158.7c3.6 0 6.6-2.8 6.6-6.4q0 0 0 0v-28.7c0-5.9-4.6-10.9-10.5-11-6-0.1-10.8 4.7-10.8 10.7v29q0 0 0 0c0 3.6 3 6.4 6.6 6.4z"/><path class="c" d="m246.1 154.2c1-1.4 1.5-3.2 1.5-5.1v-22.7c0-4.6-3.4-8.3-7.5-8.3-4.2 0-7.6 3.7-7.6 8.3v22.7c0 1.9 0.6 3.7 1.5 5.1z"/><path fill-rule="evenodd" class="i" d="m240.4 154h-0.7c-1.8 0-3.2-1.4-3.2-3.2 0-5.8 0.1-11.6-0.3-17.4 0-0.9-0.1-1.9 0.3-2.8 0.2-0.3 0.4-0.6 0.8-0.6 0.2 0 0.4 0.3 0.6 0.5 0.2 0.4 0.2 0.8 0.1 1.2-0.1 0.1-0.1 0.2-0.2 0.3-0.3 0.1-0.4-0.3-0.4-0.6 0-0.3 0.1-0.6 0.2-0.8 0.6-1.2 2.1-0.4 2.2 0.6 0.1 0.5-0.1 1.3-0.6 0.7-0.3-0.4 0.1-1.2 0.4-1.5 0.4-0.5 1.2-0.6 1.7-0.2 0.5 0.4 0.6 1.2 0.2 1.7-0.1 0-0.3 0.1-0.4 0q0 0 0-0.1c-0.3-0.6 0-1.4 0.6-1.6 0.7-0.3 1.5 0 1.7 0.7 0.1 0.3 0.1 0.7-0.1 1-0.1 0.1-0.2 0.3-0.3 0.2-0.2 0-0.3-0.2-0.3-0.3-0.1-0.3 0-0.7 0.2-0.9 0.1-0.1 0.3-0.2 0.4-0.2q0.1 0.1 0.2 0.2 0 0.2 0 0.3c0.1 4.3 0.1 8.6 0.1 12.8q0 3.4 0 6.8c0 1.8-1.4 3.2-3.2 3.2z"/><path class="c" d="m237.7 154.8h4.7v8.3h-4.7z"/><path  d="m245.7 156h-11.3c-0.5 0-0.9-0.4-0.9-0.9v-0.1c0-0.6 0.4-1 0.9-1h11.3c0.5 0 0.9 0.4 0.9 1v0.1c0 0.5-0.4 0.9-0.9 0.9z"/><path  d="m245.7 158.1h-11.3c-0.5 0-0.9-0.4-0.9-1v-0.1c0-0.5 0.4-1 0.9-1h11.3c0.5 0 0.9 0.5 0.9 1v0.1c0 0.6-0.4 1-0.9 1z"/><path fill-rule="evenodd" d="m158.9 211q0 9.8-5.2 14.9-5.2 5.2-13.9 5.2h-21.8v-67.7h20.7q9.6 0 14.4 5 4.9 4.9 4.9 13.5 0 4.3-1.8 7.9-1.8 3.6-6.5 5.7v0.5q2.4 0.8 4.2 2.3 1.7 1.5 2.8 3.5 1.2 2.1 1.7 4.4 0.5 2.4 0.5 4.8zm-11.8-28.7q0-4.1-2.2-6.4-2.2-2.4-7.1-2.4h-8.7v17.7h8.8q4.8 0 7-2.5 2.2-2.4 2.2-6.4zm0.9 28.1q0-4.3-2.1-6.9-2.1-2.7-7.1-2.7h-9.7v19.8h9.8q2.6 0 4.4-0.8 1.7-0.8 2.8-2.2 1.1-1.4 1.5-3.3 0.4-1.8 0.4-3.9z"/><path fill-rule="evenodd" class="c" d="m198.8 231.1l-10.1-28.2h-8.7v28.2h-11.1v-67.7h21.8q4.2 0 7.8 1.2 3.6 1.2 6.2 3.7 2.6 2.4 4 6 1.5 3.7 1.5 8.6 0 6.4-2.8 11-2.7 4.7-8 7.1l11.5 30.1c0 0-12.1 0-12.1 0zm0.5-48.2q0-4.8-2.5-7.1-2.4-2.3-7-2.3h-9.8v19.4h9.8q4.3 0 6.9-2.6 2.6-2.5 2.6-7.4z"/><path fill-rule="evenodd" d="m249.1 216.5h-18.8q-0.2 0.9-0.8 2.9-0.6 2-1.2 4.4-0.6 2.3-1.2 4.4-0.5 2-0.8 2.9h-11.6l19.6-67.7h10.7l19.6 67.7h-11.7zm-12.9-23.6l-3.5 13.7h13.8l-3.4-13.6q-0.2-0.8-0.6-2.9-0.4-2-1-4.3-0.5-2.2-1-4.2-0.5-2-0.6-2.8h-0.5z"/><path  d="m305.7 231.1l-15.9-29.1-7.1-13.9-0.3 0.1v42.9h-11.2v-67.7h10.2l15 27.6 8 15.2 0.4-0.1v-42.7h11v67.7c0 0-10.1 0-10.1 0z"/><path fill-rule="evenodd" d="m348.3 163.4q6.8 0 11.7 2.5 4.8 2.6 7.1 8.4 1.3 3.6 1.6 8.9 0.2 5.3 0.2 12 0 8.3-0.1 14.1-0.1 5.9-1.6 10.1-1.3 3.4-3.3 5.6-2.1 2.3-4.7 3.6-2.6 1.3-5.7 1.9-3.1 0.6-6.4 0.6h-19.5v-67.7c0 0 20.7 0 20.7 0zm9.4 25.2q0-6.9-2.4-10.9-2.4-4-8.6-4h-7.9v47.1h8q6.2 0 8.6-3.3 2.3-3.2 2.3-9.1z"/><path class="j" d="m344.8 239.4c2.5-0.3 4.8-1.3 7.3-1.5 4.2-0.4 9.3-2.2 12.8-4.7 1.6-1.2 2.8-2.8 4.3-4 1.1-1 2.5-1.6 3.7-2.5 2.9-2.3 5.7-5 8-7.9 2.3-3 3.7-6.7 3.9-10.5 0.1-1.5 0-3.1-0.8-4.4-2-3.6-6.8-1.5-9.6 0-3.2 1.7-6 4.2-7.9 7.3q-0.2 0.3-0.4 0.6c-1 1.8-1.8 3.7-3.2 5.1-1.1 1.2-2.9 2.2-3.7 3.7-1.1 1.9-2 3.5-4 4.7-2.4 1.4-5.3 1.8-7.8 3.3-2.2 1.3-4.4 2.7-6.7 4.1-2.1 1.2-3.8 3.1-6.1 4-1.5 0.6-3.2 0.7-4.6 1.5-2 0.9-2.8 4.2-3.3 6.2-0.1 0.3-0.2 0.5-0.1 0.8 0.3 2 2.8 1 3.7 0 0.7-0.7 0.5-1.5 1.1-2.3 0.7-0.8 2-1 3-1.1 1.5-0.1 3 0.1 4.3-0.6 0.7-0.3 1.2-0.8 1.9-1.1 1-0.5 2.2-0.5 3.3-0.6q0.4 0 0.9-0.1z"/><path  d="m299.2 155.2c-1.7 3 0.9 5.2 3.1 7.2 0.6 0.6 1.2 1.1 1.9 1.4 1.3 0.6 2.8 0.5 4.2 0.3 10-1.1 20.2-2.4 30-4.6 2.3-0.5 4.6-1.1 6.9-1.6 3-0.7 6.1-2 9-3.1 2.9-1.2 5.6-2.8 8-4.8q0.1-0.1 0.1-0.1c0.4-0.3 0.8-0.6 1.1-1.1 1.2-1.4 2.1-3.2 1.4-4.8-0.8-1.9-3.2-2.4-5.3-2.6-6.1-0.5-12.3 0.2-18.3 1.1-4.1 0.6-8.2 1.5-12.3 2-4.1 0.5-8.1 0-12.3 0.1-7.2 0.2-14.1 4.3-17.5 10.6z"/><path class="j" d="m317 140.3c-1.9-0.8-4.7-0.4-6.3-1.8-1.7-1.5-2.9-4.2-3.9-6.2-0.6-1.4-2.9-2.9-3.2-4.1-0.2-0.6 0.3-1.1 0.5-1.6 0.5-1 0.3-2.2 0.9-3.1 0.5-0.9 1.6-1.4 2.3-2.1 0.6-0.6 1-1.4 1.4-2.1 1.4-2.7 3.3-5.6 3.8-8.6 0.2-1.6 0.2-3.3-0.3-4.9-0.8-1.9-2.8-4-4.9-3.1-2.2 0.9-3.8 2.6-5.5 4.1-2.2 1.8-4.5 3.6-5.6 6.3-0.6 1.4-0.8 2.9-1.3 4.4-0.5 1.5-1.3 3-1.9 4.5q-0.8 2.2-1.1 4.6c0 0.7-0.1 1.5 0.2 2.2 0.2 0.8 0.8 1.5 1.4 2.1 2.8 3 5.7 5.8 9 8.2 1 0.6 1.9 1.3 3 1.7 2.1 1 2.9 2.7 5 3.6 1.7 0.8 3.6 1.3 5.5 1.4 1.4 0.1 3.7-0.2 3.8-1.9 0.2-1.6-1.5-3.1-2.8-3.6z"/><path class="j" d="m356.4 131.1c-1.1 1.6-2.6 2.8-4 4.1-1.4 1.3-2.9 2.4-4.6 3.3-1.4 0.6-2.9 1-4.3 1.7-1.7 0.8-3.2 1.9-4.8 2.8-1 0.6-4.4 2.3-5.4 1-0.9-1.2 1.1-3.1 2-3.6 2.4-1.5 4.2-3.9 5.6-6.4 0.5-0.9 0.9-1.8 1.4-2.6 1.4-2.2 3.4-4 5.8-5.1-1.6-1.8-2.9-4-3.6-6.3-2.8-1.4-4.9-4.2-5.5-7.3-0.5-2.4-0.3-6.5 2.6-7.2 2.7-0.6 6.4 0.4 8.4 2.1 2.2 1.9 3.5 4.7 4.1 7.6 0.2 1.1 0.4 2.2 0.7 3.3 0.9 2.9 2.8 5.5 2.9 8.6 0 1.6-0.5 2.9-1.3 4z"/><path  d="m347.7 104.8c-1.3-1.1-2.7-2.2-4.2-3.1-2.5-1.5-5.3-2.5-8.2-2.5-1.6 0.1-3.4-0.2-4.9 0.1-1.7 0.3-3.3 1-5 1.1-3 0.1-5.9-0.8-8.7-1.3-2.9-0.5-6.2 0.6-8.7 2-2.7 1.6-8.2 5.2-10.3 7.5 2.6 4.3 8.1 6.8 10.2 11.3q0.7-0.4 1.3-0.9-0.1 6.6 0.1 13.1c0.1 4.3-0.1 8.8 0.5 13 0.7-0.6 1.8-0.3 2.7-0.4q1.9 0 3.9 0 3.6 0 7.3 0c3.4 0 6.9 0 10.4-0.5 1.8-0.3 3.5-0.5 5.3-0.5 1-3.3 0.6-7.2 0.7-10.5 0.1-2.8 0.1-5.7-0.1-8.5 0-1.5-0.1-3-0.2-4.4 0-0.8-0.6-2.3 0-2.9 0.6 0.5 1.2 1.2 1.7 1.8q4.3-6.1 8.8-12.1-1.3-1.2-2.6-2.3z"/><path class="j" d="m321.2 165.1c-0.6 0.7-14.2 3.6-14.2 3.6l-0.6-6.8 12.6-4.6z"/><path  d="m355.5 156.9c1.6-0.9 3.2-1.8 4.9-2.5 1.8-0.6 3.8-1.1 5.2-2.4 1.5-1.4 1.9-3.6 2.3-5.6 0.5-2.2 0.5-4.7-0.1-6.9-0.9-3.1-3.5-5.7-6.6-6.5-2-0.4-4-0.1-5.8 0.7-1.3 0.7-2.4 1.7-3.7 2.4-1.1 0.5-2.2 0.9-3.4 1.3-3.4 1.4-6.6 3.4-9.7 5.3-3.2 1.9-6 4.3-9 6.3-1.2 0.8-13.8 7-13.8 7 1.6 3.6 3 7.4 4.5 11.1 8.2-1.1 16.1-3.7 24-5.8 1.6-0.5 3-1.1 4.6-1.5 1.8-0.4 3.5-1.1 5-2q0.8-0.5 1.6-0.9z"/><path class="c" d="m306.6 169.5c-2.5 0.5-5-0.1-7.7-0.4-2.1-0.2-4.3 0.2-6.4-0.1-2.7-0.5-4.9-2.4-5.1-5.2-0.1-1.6-0.2-3.3 0.8-4.5 0.9-1 2.3-1.3 3.6-1.2 1.3 0.1 2.5 0.6 3.7 1 2.1 0.7 4.2 1.3 6.4 1.7 1.7 0.4 3.2 1.3 4.9 0.4 0.1 0 0.2-0.1 0.3-0.1 0.1 0.1 0.2 0.2 0.2 0.3q0.9 2.6 1.7 5.2c0.2 1 0.7 1.5-0.1 2.1-0.6 0.4-1.6 0.6-2.3 0.8z"/><path class="j" d="m333.6 165.1c0.6 0.7 14.2 3.6 14.2 3.6l0.6-6.8-12.6-4.6z"/><path  d="m298.8 157.7c-2.6-1-5.1-2.1-7.5-3.6-0.8-0.5-1.6-1-2.2-1.7-0.8-1.1-1.1-2.5-1.3-3.8-0.9-4.8-2.2-8.6 1.3-12.7 2.9-3.4 7.5-4.7 11.4-2.2 2.5 1.5 4.2 4.4 7.1 5.4 1.5 0.5 3.2 0.4 4.7 1.1 1.3 0.6 2.7 1.7 4 2.5 3.1 1.9 5.9 4.3 9 6.3 1.2 0.8 13.8 7 13.8 7-1.6 3.6-3.1 7.4-4.6 11.1-8.1-1.1-16-3.7-24-5.8-3.9-1.1-7.9-2.2-11.7-3.6z"/><path class="c" d="m348.3 169.5c2.4 0.5 5-0.1 7.7-0.4 2.1-0.2 4.2 0.2 6.3-0.1 2.6-0.4 5.6-3.1 5.8-5.9 0-0.8-0.2-1.7-0.6-2.5-0.1-0.4-0.3-0.9-0.6-1.2-0.7-0.8-1.7-1.3-2.7-1.4-1.6-0.1-3.2 0.4-4.7 0.8-1.5 0.5-3 0.7-4.4 1.3-2 0.9-4.1 1.2-6.2 0.9-0.5-0.1-1.1-0.2-1.6 0-1.2 0.3-1.1 2.1-1.2 3-0.1 1.5-0.2 3-0.7 4.4 0.9 0.5 1.9 0.9 2.9 1.1z"/><path class="j" d="m330.7 99.2c-0.4 0-0.8 0-1.1-0.2-0.6-0.3-0.8-0.9-0.9-1.6q-0.1-1.2 0-2.4 0.1-0.4 0.1-0.7c0-1.5 0.1-3.1 0.5-4.5 1.5 0 1.5-1.1 1.6-2.4 0.1-0.4 0.1-0.8-0.2-1.1-0.2-0.3-0.8-0.3-0.9 0.1q0.1-1.5 0.1-3c0-0.9 0.2-1.6-0.7-2.1-1.4-0.8-3.1-0.8-4.7-0.5-1.2 0.3-3.1 0.8-4.1 1.7-1 1-0.9 2.4-1.2 3.7q-0.1 0.1-0.1 0.1-0.1 0.1-0.2 0c-0.6 0-1 0.5-1.2 1-0.1 0.5 0 1.1 0.2 1.6 0.1 0.3 0.2 0.6 0.5 0.9 0.2 0.2 0.7 0.2 0.9 0 0.5 1.1 0.9 2.3 1.2 3.4 0 0.2 0.1 0.4 0.2 0.6 0 0.3 0 0.7 0 1 0.1 1.1-0.1 2.1-0.3 3.2-0.1 0.3-0.1 0.7-0.3 0.9-0.4 0.5-1.1 0.5-1.7 0.5 0.4 0.6 0.5 1.3 0.9 1.9 0.7 1 1.7 1.8 2.9 2 1.8 0.2 3.6 0.3 5.3-0.3 0.8-0.3 1.6-0.8 2.2-1.4 0.7-0.7 1-1.4 1.2-2.4q-0.1 0-0.2 0z"/><path class="e" d="m340.8 148.4h-33.6c-0.9 0-1.7-0.8-1.7-1.7v-19.9c0-0.9 0.8-1.6 1.7-1.6h33.6c0.9 0 1.7 0.7 1.7 1.6v19.9c0 0.9-0.8 1.7-1.7 1.7z"/><path  d="m326.2 136c0 1.2-1 2.2-2.2 2.2-1.2 0-2.2-1-2.2-2.2 0-1.2 1-2.1 2.2-2.1 1.2 0 2.2 0.9 2.2 2.1z"/><path fill-rule="evenodd" d="m330.9 84.4c-0.7 3.5-1.5 9.8-6.3 9.9-1.6 0.1-3.1-0.6-4.1-1.9-1-1.5-1.4-3.5-1.6-5.3-0.3-1.8-0.3-3.7-0.2-5.5 0.1-0.7 0.3-1.5 0.8-2 0.3-0.3 0.6-0.5 0.9-0.7q1.2-0.7 2.6-1.1c0.6-0.1 1.2-0.2 1.7-0.5 0.3-0.2 0.6-0.5 0.9-0.8 0.5-0.4 1.1-0.6 1.8-0.6 0.5 0.1 1 0.2 1.3 0.5 0.3 0.3 0.4 0.6 0.6 0.9q0.2 0.4 0.4 0.9c0.2 0.2 0.3 0.5 0.3 0.8 0 0.2 0 0.4 0 0.5 0 0.3 0.2 0.5 0.3 0.7 0.9 1.2 0.9 2.8 0.6 4.2zm-5.8 6.3c-0.5 0.2-0.9 0.2-1.4 0-0.6-0.3-1 0.6-0.5 0.9 0.8 0.4 1.6 0.3 2.4 0 0.6-0.3 0.2-1.2-0.5-0.9zm4.4-7.3c-0.3-0.9-1-1.3-2.1-1.4q-1.3 0-2.6 0c-1.4 0-2.9 0-4 0.8-0.3 0.2-0.7 0.5-0.8 0.9-0.7 1.8-0.4 4.6 0.6 6.7 0.6-0.8 2.5-0.9 3.3-1 1.3-0.1 3.3-0.1 4.3 0.9q0.2-0.4 0.4-0.8c0.1-0.7 0.4-1.5 0.5-2.2 0.2-1.3 0.3-2.6 0.4-3.9z"/><path  d="m354.4 128.8c-0.1 0.4-0.4 0.8-0.6 1.1-0.2 0.2 0 0.6 0.3 0.4 0.5-0.3 0.8-0.7 1.1-1.3 0.1-0.5-0.6-0.7-0.8-0.2z"/><path  d="m294.4 127.9c-0.3-0.2-0.6-0.3-0.6-0.7 0-0.4-0.6-0.4-0.6 0 0 0.5 0.4 1.2 1 1.1 0.2 0 0.4-0.2 0.2-0.4z"/><path class="a" d="m338.8 155.2q0 0 0 0c-0.1-0.4-1.2-0.8-1.5-1q-1-0.5-1.9-1c-1.2-0.6-2.5-1.2-3.7-1.8-2.6-1.4-5.1-2.8-7.7-4.1-0.2-0.1-0.4 0.2-0.2 0.3 2.6 1.6 5.4 3 8 4.4 1.3 0.7 2.5 1.4 3.8 2q0.9 0.5 1.8 1c0.6 0.3 0.9 0.5 0.8 1.2q-0.1 0.9-0.4 1.8 0 0.1 0 0.3c0 0.2 0.2 0.3 0.4 0.1 0.5-0.8 0.9-2.2 0.6-3.2z"/><path  d="m223.9 124.8c-3 0-6 0.1-9.1-0.2-0.3 0-0.3 0.5 0 0.5 3 0.3 6.2 0.5 9.2 0.1 0.2 0 0.1-0.4-0.1-0.4z"/><path  d="m227.7 113.4c-1.5-1.3-3.2-2.4-4.8-3.6-0.3-0.2-0.6 0.3-0.3 0.5 1.6 1.2 3.1 2.4 4.8 3.4 0.2 0.1 0.4-0.1 0.3-0.3z"/><path  d="m236.8 98.5c-0.1-0.4-0.7-0.2-0.6 0.2 0.7 2.1 1.2 4.3 2.1 6.3 0.1 0.3 0.5 0.1 0.4-0.1-0.4-2.2-1.2-4.3-1.9-6.4z"/><path  d="m250.5 100.5c-0.6 2.1-1.6 3.9-2.4 5.9-0.2 0.3 0.3 0.5 0.5 0.3 1.6-1.6 2.3-3.9 2.7-6 0.1-0.5-0.6-0.7-0.8-0.2z"/><path  d="m260.6 112.7c-1.7 0.7-3.7 1.5-4.9 2.9-0.2 0.3 0 0.6 0.3 0.5 1.7-0.8 3.2-2 5-2.8 0.4-0.2 0-0.8-0.4-0.6z"/><path  d="m264.5 125.8c-2.2 0.6-4.4 0.6-6.6 1-0.3 0-0.3 0.5 0 0.5 2.2 0.5 4.7-0.1 6.9-0.7 0.5-0.1 0.3-0.9-0.3-0.8z"/><path  d="m251.8 82.1c-18.7 0-33.7-15.1-33.7-33.7 0-18.6 15-33.7 33.7-33.7 18.6 0 33.6 15.1 33.6 33.7 0 18.6-15 33.7-33.6 33.7z"/><path class="f" d="m260.5 72.5c-13.3 4.8-28-2-32.8-15.4-4.8-13.3 2-28 15.3-32.8 13.4-4.8 28 2 32.9 15.4 4.8 13.3-2.1 28-15.4 32.8z"/><path  d="m257.9 63.3c-8.3 3.4-17.7-0.6-21-8.8-3.4-8.2 0.5-17.6 8.8-21 8.2-3.4 17.6 0.6 21 8.8 3.3 8.2-0.6 17.6-8.8 21z"/><path class="c" d="m260.4 49.8c-0.8 4.8-5.3 8.1-10.1 7.3-4.7-0.8-8-5.3-7.2-10.1 0.8-4.8 5.3-8 10.1-7.3 4.8 0.8 8 5.3 7.2 10.1z"/><path class="g" d="m303.1 39.9l-52.3 8.8"/><path class="g" d="m254.5 43.8l-3.5 4.9 4.9 3.5"/><path class="g" d="m294 37.1l-3.5 4.9 4.9 3.5"/><path class="g" d="m298.2 36.4l-3.5 4.9 4.9 3.5"/><path class="g" d="m302.4 35.7l-3.5 4.9 4.9 3.5"/><path class="e" d="m175.7 30.6c-1.6-1.8-3.9-2.9-6.5-2.8-3.6 0.2-7.1 2.6-7.4 5.9-3.5 1-6.1 4.3-6 8.1 0.2 2.3 1.3 4.4 2.9 5.8-0.4 1.2-0.3 2.6 0.4 4 0.4 0.7 1.1 1.4 1.9 1.7 1.4 0.7 2.8 0.7 3.9 0.2l0.1 6.6c0 0.4 0.5 0.5 0.7 0.2l3.5-4.9c3.2 1.3 6-0.7 6.2-3.6 0.9 0.4 1.8 0.6 2.9 0.6 2.9-0.1 5.2-2.5 5.4-5.3 1.6 0.9 3.7 1.1 5.8 0.1 1.2-0.6 2.1-1.6 2.5-2.8 1.6-4.2-1.5-8.1-5.4-8"/><path class="e" d="m163 44.4c-1.9 0.1-3.5 1.3-4.2 2.9"/><path class="e" d="m183.7 46.6c-0.2-3.2-2.9-5.6-6-5.5"/><path class="e" d="m189.1 36.8c-2-0.7-3.9-0.5-5.3 0.3"/><path class="e" d="m186.6 36c-0.2-3.8-3.4-6.8-7.3-6.6-3.8 0.2-6.8 3.4-6.6 7.3"/><path class="e" d="m180.5 32c-2.5 0.1-4.5 2.3-4.4 4.8"/><path class="e" d="m176.5 49.6c2.2 0.2 4.2-1.5 4.4-3.7"/><path class="e" d="m189.4 43.6c0.6-2-0.4-4.1-2.3-4.7"/><path class="e" d="m161.2 49c0.5 1.4 2.1 2.3 3.5 1.8"/><path class="e" d="m167.9 34.8c-1.7-1.1-3.8-1.6-6-1.1"/><path class="e" d="m160.6 37.2c-1.1 0.9-1.9 2.2-1.9 3.8"/><path class="k" d=""/><path  d="m352.7 55.8h6.1c0.8 0 1.3-0.6 1.3-1.3v-20.2c0-0.7-0.5-1.3-1.3-1.3h-29.3c-0.7 0-1.3 0.6-1.3 1.3v3.8"/><path class="e" d="m352 38.7h-25.9c-0.8 0-1.3 0.6-1.3 1.3v17.9c0 0.8 0.5 1.3 1.3 1.3h1.8c0.1 0 0.3 0.2 0.3 0.4v6.9c0 0.3 0.3 0.5 0.5 0.3l9.4-7.5q0.1-0.1 0.2-0.1h13.7c0.7 0 1.3-0.5 1.3-1.2v-18c0-0.7-0.6-1.3-1.3-1.3z"/><path class="e" d="m327.4 44.8h21"/><path class="e" d="m327.4 47.9h21"/><path class="e" d="m327.4 51.6h21"/><path class="k" d="m402.5 46.7q-1 0-1.8 0.4c-0.6-3.3-3.4-5.8-6.9-5.8-3.4 0-6.3 2.5-6.9 5.8q-0.8-0.4-1.8-0.4c-2.3 0-4.3 2.1-4.3 4.5 0 2.4 2 4.6 4.3 4.6 1.6 0 15.8 0 17.4 0 2.4 0 4.3-2.2 4.3-4.6 0-2.4-1.9-4.5-4.3-4.5z"/><path class="e" d="m397.4 39.7c-1.1-0.5-2.3-0.8-3.6-0.8q-1.5 0-2.8 0.5"/><path class="e" d="m399.5 37.6c-1.6-1-3.6-1.6-5.7-1.6-1.8 0-3.6 0.5-5.1 1.3"/><path class="e" d="m401.4 35.3c-2.1-1.6-4.7-2.5-7.6-2.5-2.5 0-4.9 0.7-6.9 2"/><path fill-rule="evenodd" class="k" d="m87.2 45.2l1.3 2.7c0.1 0.3 0.2 0.4-0.1 0.6l-1 0.4c-0.2 0.1-0.3 0.5-0.3 0.8 0.3 1.1 0.3 2.4 0.2 3.7 0 0.2 0.2 0.5 0.5 0.6l1 0.3c0.4 0.2 0.5 0.5 0.4 0.9l-0.9 2.6c-0.2 0.4-0.5 0.5-0.9 0.4l-1.2-0.4c-0.2-0.1-0.6 0-0.7 0.3-0.7 1-1.7 2.1-2.7 2.9-0.2 0.1-0.4 0.5-0.3 0.8l0.6 1.2c0.1 0.3 0.2 0.4-0.1 0.6l-2.6 1.2c-0.4 0.2-0.8 0.2-0.9-0.1l-0.6-1.2c-0.1-0.3-0.4-0.4-0.7-0.4q-1.7 0.4-3.6 0.2c-0.3-0.1-0.6 0.1-0.7 0.4l-0.3 1.1c-0.1 0.3-0.5 0.5-0.9 0.4l-2.6-0.9c-0.3-0.1-0.5-0.5-0.4-0.8l0.5-1.2c0.1-0.2 0-0.6-0.3-0.7-1-0.7-2-1.6-2.7-2.5-0.2-0.2-0.5-0.3-0.8-0.2l-1.2 0.5c-0.3 0.2-0.7 0.2-0.8-0.1l-1.3-2.6c-0.1-0.3 0.1-0.7 0.4-0.9l1.2-0.5c0.3-0.2 0.4-0.5 0.3-0.8-0.3-1.4-0.3-2.6-0.2-3.8 0.1-0.3-0.1-0.6-0.4-0.7l-1.4-0.5c-0.3-0.1-0.4-0.5-0.3-0.8l0.9-2.7c0.1-0.3 0.5-0.5 0.8-0.4l1.3 0.5c0.3 0.1 0.6 0 0.7-0.2q1-1.6 2.4-2.7c0.2-0.2 0.3-0.5 0.1-0.7l-0.6-1.3c-0.1-0.3 0-0.9 0.3-1.1l2.7-1.2c0.3-0.2 0.5 0.3 0.7 0.6l0.6 1.2c0.1 0.3 0.5 0.4 0.8 0.3 1.2-0.2 2.6-0.4 3.8-0.2 0.3 0 0.6-0.2 0.7-0.4l0.5-1.4c0.1-0.3 0.5-0.5 0.8-0.3l2.7 0.9c0.3 0.2 0.5 0.5 0.4 0.8l-0.4 1.4c-0.1 0.3 0 0.6 0.2 0.7 1.1 0.7 2 1.4 2.8 2.6 0.2 0.2 0.6 0.3 0.8 0.2l1-0.4c0.3-0.2 0.4 0 0.5 0.3zm-5.8 4.2c-1.5-3-5.1-4.3-8.1-2.9-3.1 1.5-4.4 5.1-2.9 8.1 1.4 3.1 5.1 4.4 8.1 2.9 3-1.4 4.3-5.1 2.9-8.1z"/><path class="b" d="m80.3 242.2h294.8"/><path fill-rule="evenodd" class="e" d="m403.4 150.4c-2.5 0.3-4.8-0.6-6.5-2.1-1.5-1.4-2.4-3.2-2.7-5.3-0.2-2.3 0.4-4.5 1.8-6.1l-4.5-46.9 11.8-1.2 4.6 46.9c1.8 1.9 2.8 3.8 3 5.6 0.2 2.2-0.4 4.4-1.9 6.1-1.4 1.7-3.4 2.8-5.6 3zm1.1-6.2q0.1-0.1 0.1-0.2 0.2-0.2 0.3-0.5 0-0.1 0-0.1 0 0 0 0 0.2-0.6 0.2-1.3-0.1-0.1-0.1-0.1c0-1.1-1.3-2.1-2.4-2.1-1.1-0.1-2.3 0.6-2.6 1.7q0 0.1 0 0.1 0-0.2 0.1-0.4c-0.2 0.6-0.4 1.1-0.3 1.8 0.1 0.6 0.6 1.3 1.1 1.7 1.1 0.7 2.9 0.6 3.6-0.6z"/><path class="e" d="m395.1 89.9l4.5 46.8"/><path class="e" d="m399.7 89.4l4.6 46.8"/><path class="e" d="m407.3 83.8c-0.6-5.5-5-9.7-10.6-10l-1.8-0.1 4.8 8.9-7.2 3.9-4.8-9.2-1 1.4c-1.4 2.2-2.1 4.8-1.8 7.4 0.3 2.8 1.5 5.3 3.6 7.1q0.2 0.3 0.5 0.5c2.3 1.9 5.2 2.7 8.2 2.4 6.2-0.6 10.7-6.1 10.1-12.3z"/><path  d="m419.6 99.4l3.3-0.1 4.4 38.8-3.3 0.1z"/><path class="e" d="m412.4 72.5q0.1-0.2 0.2-0.3c1.1-1.4 2.7-2.3 4.4-2.4 3.5-0.4 6.8 2.2 7.2 5.9l4.5 37.7-12.4 1.7-5.1-37.9c-0.2-1.7 0.2-3.4 1.2-4.7z"/><path class="e" d="m417.5 133l5.4-6.7 3 0.1 6 4.9-1.8 15.7-8.2 0.9z"/><path class="i" d="m419.3 105l-4.5-34.7"/><path class="i" d="m423.6 104.5l-4.4-34.7"/><path class="i" d="m428.4 110.4l-12.7 1.2"/><path class="e" d="m428.5 142.7l0.7-8.7"/><path  d="m419.3 243.7c1 4.1-3.2 6.2-3.2 12.5"/><path class="k" d="m373.5 259.1h-292.2c-0.6 0-1-0.4-1-1v-14.9c0-0.5 0.4-1 1-1h292.2c0.6 0 1 0.5 1 1v14.9c0 0.6-0.4 1-1 1z"/><path class="l" d="m373 263v-22"/><path  d="m103.2 291.4h-5.3c-13.2 0-24-10.7-24-23.9v-20.9c0-3.1 2.5-5.6 5.6-5.6h23.7c13.3 0 24 10.7 24 23.9v2.6c0 13.2-10.7 23.9-24 23.9z"/><path class="c" d="m100.6 279.7h-1.4c-7.3 0-13.3-5.9-13.3-13.2v-1.4c0-7.3 6-13.3 13.3-13.3h1.4c7.3 0 13.2 6 13.2 13.3v1.4c0 7.3-5.9 13.2-13.2 13.2z"/><path class="b" d="m138.8 250.4v-8.1"/><path class="d" d="m146.2 247.9v-5.6"/><path class="d" d="m153.5 247.9v-5.6"/><path class="d" d="m160.9 247.9v-5.6"/><path class="d" d="m168.3 247.9v-5.6"/><path class="b" d="m175.6 250.4v-8.1"/><path class="d" d="m183 247.9v-5.6"/><path class="d" d="m190.4 247.9v-5.6"/><path class="d" d="m197.7 247.9v-5.6"/><path class="d" d="m205.1 247.9v-5.6"/><path class="b" d="m212.5 250.4v-8.1"/><path class="d" d="m219.8 247.9v-5.6"/><path class="d" d="m227.2 247.9v-5.6"/><path class="d" d="m234.6 247.9v-5.6"/><path class="d" d="m241.9 247.9v-5.6"/><path class="b" d="m249.3 250.4v-8.1"/><path class="d" d="m256.7 247.9v-5.6"/><path class="d" d="m264 247.9v-5.6"/><path class="d" d="m271.4 247.9v-5.6"/><path class="d" d="m278.8 247.9v-5.6"/><path class="b" d="m286.1 250.4v-8.1"/><path class="d" d="m293.5 247.9v-5.6"/><path class="d" d="m300.8 247.9v-5.6"/><path class="d" d="m308.2 247.9v-5.6"/><path class="d" d="m315.6 247.9v-5.6"/><path class="b" d="m322.9 250.4v-8.1"/><path class="d" d="m330.3 247.9v-5.6"/><path class="d" d="m337.7 247.9v-5.6"/><path class="d" d="m345 247.9v-5.6"/><path class="d" d="m352.4 247.9v-5.6"/><path  d="m99.9 276.3c-5.6 0-10.1-4.5-10.1-10.1 0-5.6 4.5-10.1 10.1-10.1 5.6 0 10.1 4.5 10.1 10.1 0 5.6-4.5 10.1-10.1 10.1z"/><path class="j" d="m43 284.5c2.5-0.2 5.1 0 7.5 0.7q1.7-6.3 3.1-12.6c0.6-2.8 0.2-5.3-2.9-5.9-2-0.3-3.7 0.4-4.8 2-2.6 3.9-2.7 11.4-2.9 15.8z"/><path class="c" d="m62.7 289c-1 2.5-4 2-6.1 2q-4.8 0-9.7-0.4c-2.1-0.1-5.5-0.8-4.9-3.6q0.5-1.9 0.9-3.8c0-0.3 0.2-0.6 0.5-0.7q0.1 0 0.3 0c1.1 0.2 2.4 0.7 3.6 0.4 1-0.2 2.2-0.7 3.3-1.1 0.2-0.1 0.5-0.2 0.8-0.1 0.6 0.2 0.8 0.9 1.3 1.3 0.6 0.5 1.3 0.7 2 0.9 2 0.7 3.9 1.2 6 1.5 1.5 0.2 2.6 1.6 2.2 3.2q-0.1 0.2-0.2 0.4z"/><path class="j" d="m92.6 235.7c2.5-0.2 5.1 0 7.5 0.7q1.7-6.2 3.1-12.6c0.6-2.7 0.2-5.3-3-5.8-1.9-0.4-3.7 0.3-4.7 1.9-2.6 3.9-2.8 11.4-2.9 15.8z"/><path class="c" d="m112 239.8c0 0.7-0.5 1.5-1.2 1.9-1.4 0.7-3.2 0.5-4.7 0.5q-4.8 0-9.6-0.3c-2.2-0.2-5.5-0.8-4.9-3.7q0.4-1.9 0.8-3.7c0.1-0.3 0.2-0.7 0.5-0.8q0.2 0 0.3 0c2 0.3 3.6 1.3 5.5 0.3 0.7-0.3 1.3-0.8 2-0.8 0.9-0.1 1.4 1.1 2 1.6 0.9 0.7 2 1.1 3 1.4q1.9 0.7 3.9 1c0.4 0.1 0.8 0.2 1.2 0.4 0.9 0.5 1.3 1.4 1.2 2.2z"/><path  d="m72.5 197c1.4 0.5 2.9 1.2 3.8 1.4 6.8 1.5 14 0.7 20.2-2.4 2.8-1.4 5.4-3.3 7.1-5.8 1.5-2.3 3.5-5.9 2.1-8.6-1.3-2.7-6.1-3.5-8.7-4.4q-5.2-1.6-10.5-2.8c-8.1-1.8-15.9 0.7-24-1.1-5.4-1.3-10.7-3.1-15.7-5.7 0.1 0.1-3.9 10.8-4.2 11.8-1.2 5-1.5 10.3 0.3 15.2 0.4 1.3 1.1 2.5 1.3 3.9 0.2 1.4 0 2.9-0.2 4.3-1.1 7.4-0.9 14.9 0.4 22.2 0.5 2.5 0.7 5.3 1.4 7.7 0.6 2.1 2.2 3.9 1.6 6.2-0.1 0.6-0.3 1.1-0.6 1.6-0.7 1.7-1 3.6-1 5.4 0 1.2 0.1 2.4 0 3.6 0 1-0.2 1.9-0.4 2.9-1.6 8.1-3.6 15.8-3.8 24.2 0 0.2 15.3 2.8 16.3 1.8 1.4-1.4 1.7-5.6 2.1-7.4q1-3.8 1.8-7.6 1.9-7.8 3.5-15.6c1.6-8.3 4-16.8 3.4-25.3q-0.6-7.9-0.8-15.8c0-2.3-1.8-7.8 0-9.6 1-1.1 2.8-0.7 4.6-0.1z"/><path  d="m109.6 204.5q-0.1-0.5-0.2-1.1c0-1.2 0.1-2.3 0.2-3.5 0.5-4.7 0-9.5-1.5-14-0.9-2.9-2.3-5.2-4.9-6.7-2.6-1.4-6-1-8.5 0.5-2.6 1.6-5.2 4.9-5.7 7.9-0.6 3.5-0.3 7.1-0.2 10.6q0 1.7 0 3.3c-0.2 3.3 1.3 5.8 1.7 8.9 0.5 3.6 0.4 7.7 0.3 11.4-0.1 0.6-0.2 1.6-0.3 2.9-0.1 0.5 0.3 0.9 0.8 0.9 3.3-0.1 14.2 0 17.4 0.2 0.5 0 0.8-0.3 0.9-0.8l0.9-9.3c0.2-2.2 0.5-4.6 0-6.8-0.3-1.4-0.7-2.9-0.9-4.4z"/><path  d="m51.5 145c0.4-1.6 1-3.2 1.6-4.8 1.4-3.6 3.1-7.2 5.7-10.1 5.2-5.8 14.5-7.3 19.3-0.1 2.5 3.8 1.6 9.3 0.9 13.5q-1.8 12.9-3.6 25.7c-0.5 3.4-1.4 6.4-5.1 7-3 0.5-5.9 1-8.9 1.4-3.4 0.4-11.2 2.4-13.3-1.1-2.5-4.2-1.2-8.2-0.3-12.6 0.8-4.4 1.4-9 2.5-13.3 0.3-1.8 0.6-3.5 1.1-5.2q0-0.2 0.1-0.4z"/><path class="j" d="m72.8 175.7q0.8 0.5 1.6 1c3.8 2 7.7 3.9 11.7 5.6 3.1 1.3 6.1 3.3 9.5 3.9 3 0.5 6.8 0.2 9-2.2 0.6-0.7 1.1-1.5 0.9-2.4-0.1-0.8-1.2-1.5-1.9-1.1-0.2 0.2-0.4 0.3-0.6 0.5-0.7 0.7-1.8 0.8-2.8 0.7-1.1 0-2.1-0.2-3.1-0.1-0.3 0-0.7 0.1-1.1 0-0.4-0.1-0.7-0.3-1-0.6-2.3-1.9-4.9-3.7-6.8-6.1-0.8-1-1.4-2.2-2.1-3.3-1.2-1.7-2.7-3.2-4.5-4.3-3.4-2.2-4.7-5.3-6.4-8.9-0.5-1.1-1-2.2-1.3-3.4-0.4-1.5-0.4-3.1-0.6-4.7-0.4-2.2-1.2-4.4-2.2-6.4-0.9-1.8-1.9-3.7-3.4-5.1-1.5-1.4-3.6-2.3-5.6-1.9-2.5 0.4-4.4 2.6-5.1 5.1-0.7 2.4-0.5 5-0.2 7.6 0.3 2.4 0.6 4.9 1.8 7 1.1 2.1 2.7 3.9 3.8 5.9 1.2 2 1.7 4.1 2.7 6.1 1.5 3.2 4.5 5.3 7.7 7.1z"/><path class="j" d="m96.3 91.1q0.4-0.8 0.7-1.6c0.6-1.3 0.9-2.7 2.8-2.3 1.3 0.3 2 1.9 2 3.2 0 1.7-0.6 3.2-1.2 4.8-0.6 1.6-0.6 3.5-1 5.1-0.4 2-0.9 4.1-2.1 5.7-0.9 1.2-2.2 2.1-3 3.4-0.5 0.8-0.7 1.8-1 2.7-0.8 3.1-1.2 6.5-2.3 9.5-1.2 3.3-2.8 6.4-4.9 9.2-1.4 2-3 4-5.2 5-1 0.4-2 0.6-3.1 0.7-1.3 0.1-2.8 0-3.8-0.9-1.8-1.5-1.9-4.7-1.4-6.8 0.6-3 1.9-5.8 3.7-8.2 1.3-1.6 2.6-3.3 3.9-4.9 1.6-1.9 2.8-4 4.5-5.9 0.7-0.8 1.4-1.6 1.9-2.5 0.3-0.8 0.5-1.8 0.7-2.6 0.7-2.7 2-5.3 3.8-7.4 0.9-0.9 1.8-1.8 2.7-2.8 0.8-1 1.6-2.2 2.3-3.4z"/><path  d="m80.8 125.2q-0.1-0.1-0.3-0.3c-1.4-1.6-2.9-3.6-4.5-5-1.5 2.5-2.9 5.1-4.3 7.7-0.5 0.9-1 1.8-1.3 2.8-1.3 4 0.6 9.2 2.9 12.7 0.7 1.2 2.3 3.3 4 2.7 1.6-0.6 2.6-4 3.3-5.4 0.9-1.7 1.8-3.4 2.9-5 0.7-0.9 1.5-1.7 2.2-2.6 0.6-0.9 0.7-1.1 0.1-2-1.3-2-3.4-3.8-5-5.6z"/><path class="j" d="m64.9 121.8c0.5-1.5 0.9-3.1 1-4.9 0.2-1.9 0.2-3.9 0.9-5.8 1.1-2.8 5.1-4.6 7.9-3.9 4.1 1 2.9 7.8 2.5 10.8-0.2 1.5-1.3 2.5-2.1 3.8-1.3 2-1.5 5.4-1.7 7.7 0 0.3 0 0.6-0.2 0.8-0.2 0.3-0.5 0.4-0.8 0.4-1.7 0.4-3.3 0.8-5 0.7-2.2 0-5.7-0.8-4.6-3.6 0.7-2.1 1.5-4 2.1-6z"/><path  d="m76 102.4q0 0-0.1 0c-1.5 0-2.8 0.9-3.6 2.1-0.2 0.2-0.3 0.4-0.5 0.6-0.2 0.1-0.5 0.1-0.7 0.1-1.7 0.1-3.4 0.9-4.5 2.2-1.2 1.2-1.7 2.8-1.8 4.4-0.1 1 0 1.7 0.2 2.6 0.2 0.7 0.1 1.1 0.2 1.7 0.3 1.7 1.7 1.6 2.6 0.2 0.4-0.8 0.7-1.7 1.1-2.6 0.4-1.1 0.9-2.2 1.9-2.9 0.9-0.7 2-0.9 3.1-1.1 1.2-0.1 2.3-0.3 3.3-0.9 2.5-1.6 2.2-6.2-1.2-6.4z"/><path class="j" d="m70.2 113.3c-0.5-0.9-1.5-1.2-2.4-0.8-1 0.6-1.5 2-1.3 3 0.2 1 1.2 1.7 2 1.1 0.4-0.1 0.8-0.3 1.1-0.6 0.6-0.7 1.1-1.8 0.6-2.7z"/><path  d="m75.6 116.6c-0.4 0.1-0.7 0.4-1.1 0.2-0.4-0.2-0.8 0.4-0.4 0.6 0.6 0.3 1.6 0.4 1.9-0.3 0.1-0.3-0.1-0.6-0.4-0.5z"/><path  d="m68.6 114.4c-0.1-0.5-0.8-0.3-0.7 0.2 0 0.4 0 0.7 0.3 1 0.1 0.2 0.4 0.1 0.5-0.1 0.1-0.4 0-0.7-0.1-1.1z"/><path  d="m69.9 169.9c-0.4-0.1-0.7-0.1-1-0.3-0.4-0.2-0.5-0.5-0.5-0.9-0.1-0.5-0.7-0.6-0.9-0.2-0.2 0.7 0.1 1.4 0.5 1.8 0.5 0.5 1.3 0.9 1.9 0.5 0.2-0.2 0.4-0.7 0-0.9z"/><path class="a" d="m67.3 195.5c-1.2-1.3-2.8-2-4.4-2.3-1.3-0.3-2.6-0.1-3.8 0.1q-0.2 0.3-0.4 0.7c1-0.1 1.9-0.2 2.9-0.2 2.1 0.1 3.6 1 5.3 2.1 0.3 0.2 0.6-0.2 0.4-0.4z"/><path  d="m54.4 142.5c-0.2 4.3 0.8 8.6 1.8 12.8 1.9-1.8 4.5-2.6 7-3.4q4-1.2 8-2.5c0.7-0.2 1.6-0.5 1.8-1.3 0.1-0.3 0.1-0.5 0-0.8-0.6-5.8-4-11.2-8.8-14.4-2.9-2-4.5-2.5-6.7 0.5-2 2.6-2.9 5.9-3.1 9.1z"/><path class="a" d="m67.4 135.8c-0.2-0.1-0.3 0.1-0.2 0.2 1.5 1.7 2.8 3.3 3.7 5.3 1.1 2.2 1.6 4.6 2.5 6.9 0 0.2 0.3 0.1 0.3-0.1-0.8-4.3-2.6-9.6-6.3-12.3z"/><path  d="m75.7 119.9c-0.2 0-0.5 0.1-0.7 0-0.1 0-0.2 0.2-0.1 0.3 0.4 0.2 0.7 0.2 1 0 0.1-0.2-0.1-0.4-0.2-0.3z"/><path class="e" d="m101.7 181.3h-3.1c-0.9 0-1.6-0.8-1.6-1.7v-106c0-0.9 0.7-1.6 1.6-1.6h3.1c0.9 0 1.6 0.7 1.6 1.6v106c0 0.9-0.7 1.7-1.6 1.7z"/><path class="b" d="m101.8 167.4h-5.1"/><path class="d" d="m100.3 162.8h-3.6"/><path class="d" d="m100.3 158.1h-3.6"/><path class="d" d="m100.3 153.5h-3.6"/><path class="d" d="m100.3 148.9h-3.6"/><path class="b" d="m101.8 144.3h-5.1"/><path class="d" d="m100.3 139.6h-3.6"/><path class="d" d="m100.3 135h-3.6"/><path class="d" d="m100.3 130.4h-3.6"/><path class="d" d="m100.3 125.7h-3.6"/><path class="b" d="m101.8 121.1h-5.1"/><path class="d" d="m100.3 116.5h-3.6"/><path class="d" d="m100.3 111.8h-3.6"/><path class="d" d="m100.3 107.2h-3.6"/><path class="d" d="m100.3 102.6h-3.6"/><path class="b" d="m101.8 98h-5.1"/><path class="d" d="m100.3 93.3h-3.6"/><path class="d" d="m100.3 88.7h-3.6"/><path class="d" d="m100.3 84.1h-3.6"/><path class="d" d="m100.3 79.4h-3.6"/><path class="j" d="m101.8 85.5q0.3 1.5 0.7 2.9c0.1 0.2 0.1 0.4 0.3 0.6 0.2 0.2 0.6 0.3 1 0.2 0.3 0 0.6-0.3 0.9-0.5 1-1 1.4-2.4 1.4-3.8 0-1.2-0.6-3.8-2.4-3.2-1.4 0.6-2.2 2.4-1.9 3.8z"/><path  d="m94.1 106.5c-0.3 0.2-0.5 0.3-0.8 0.4-0.6 0.1-0.3 1 0.2 0.8 0.4-0.1 0.8-0.3 1.1-0.7 0.1-0.3-0.2-0.6-0.5-0.5z"/><path class="c" d="m456.4 297.1q0.1 0.1 0.2 0.2c0.2 0.1 0.5 0.3 0.6 0.5 0.2 0.3 0.3 0.7 0.4 1 0.5 1.9 0.7 4 0.2 5.9-0.6 2.2-1.6 3.8-0.4 6.1 1.5 3 4.1 1 5.3-1.1 1.3-2.1 1.4-4.6 2.5-6.9q1.9-4.1 3-8.4c0.2-0.6 0.3-1.2 0.1-1.7-0.2-0.5-0.7-0.7-1-1-3-1.8-6.3-2.9-9.5-4.1-1.3-0.4-2.2-1-3.3-0.3-1.5 0.9-3.3 4.4-2.8 6 0.4 1 1.2 1.8 2.1 2.4 0.8 0.5 1.8 0.9 2.6 1.4z"/><path  d="m455 284.5c-5.3-3-13.5-6.2-14.7-6.7-2.1-0.8-4.6-0.9-6.8-1.5 0.4-1.4 1.4-2.7 2.2-4 1.4-2.4 1.4-4.6 1.8-7.2 0.4-2.1 1.7-3.7 3-5.5 2.7-4.1 4-8.8 4.1-13.7 0.1-4.9-1.1-9.9-3.5-14.3-4-7.4-14-17.2-23.2-11.4-7.9 5-0.5 16.6-0.7 23.5-0.1 4-2.3 7.5-3.1 11.4-0.9 4.1 0 8.1-0.4 12.1-0.2 2-0.8 3.9-1.4 5.8-1.5 3-2.1 7.4-2.2 9.8 0 0.9 0 1.9 0.3 2.8 0.5 1.7 1.8 3.1 3.3 4.2 3.5 2.9 9.6 4.2 13.8 5.9 7.8 3 16 5.2 23.9 7.7 3.5-4.5 6.2-9.5 8-14.9 0.3-1-1.6-2.5-4.4-4z"/><path  d="m385.4 194c-2.3 0.5-4.5 2.3-6.2 3.5-2.6 2-4.8 4.4-7.2 6.6q-0.1 0.2-0.3 0.4-0.3 0.2-0.5 0.4 0.2 0.5 0.5 1c3.1 5 6.5 9.7 9.9 14.5 4.4-5 7.3-11.3 7.9-18 0.1-0.9 0-2.2-0.2-3.5q-0.2-0.5-0.5-0.9c-0.8-1.5-2.2-2.7-3.4-4z"/><path  d="m411.6 238.7c2.4-1.4 4.7-3 7.1-4.4 5.6-3.3 10.8-7.2 16.3-10.7-5.5-8.4-12-16.2-17.4-24.7-1.4-2.1-2.7-4.1-4.2-6-2.1-2.6-4.8-4.7-7.9-5.8-3.1-1.1-7.1-0.4-10.3 0.1-3.7 0.6-7.2 2.1-9.8 4.7-1 1-1.7 2-2.5 3.1-3.8 5.2-4.9 9.7-1.6 15.5 1.7 3.2 4 6 6.2 8.8 1.3 1.8 14.5 16.9 17.1 23q3.5-1.8 7-3.6z"/><path  d="m435 223.6c-1.3 0.9-2.6 1.6-4 2.2q-10.9 5.4-22 10.4"/><path class="j" d="m408.7 200c5.6 0.1 10.7 6.1 10.5 11.5-0.2 2.7-1 5.2-1.4 7.8-0.8 4.7-0.8 9.2-2.6 13.6-1.7 4-4.6 7.4-8.4 9.6-2.1 1.2-4.4 2-6.4 3.4-1.2 0.9-2.3 1.9-3.5 2.6-2.9 1.7-6.7 2.4-9.8 3.5-1.5 0.5-3 1.1-4.4 1.9-1.4 0.9-2.5 2.2-3.9 3-2 1.1-4.6 1.6-6.8 1.6-1.1-0.1-2.2-0.2-3.1-0.8-0.8-0.5-2-1.1-2.2-2.1-0.2-1 0.7-2.1 1.5-2.6 1.4-0.7 3.1-0.3 4.6-0.8 1.6-0.5 1.8-1.9 1.7-3.4q0.3-0.2 0.6-0.1c2 0.8 4.2-0.9 5.7-2 1.4-1.1 2.6-2.3 3.8-3.5 2.4-2.5 4.6-5.1 7.2-7.4 1.5-1.3 3.6-1.9 4.5-3.7 1.3-2.4 0.7-5.4 2-7.8 0.6-1 1.4-1.9 1.8-3 0.4-1.1 0.2-2.3 0-3.5-0.3-2.9-0.1-5.9 0.4-8.7 0.6-2.7 1.5-5.3 3.4-7.2 1.4-1.3 3.1-1.9 4.8-1.9z"/><path  d="m399.4 215.3c1 0.3 2.3 0.1 3.6 0 5.8-0.2 11.5-1.3 17-3.1 0.7-0.2-2-10.4-2.3-11.4-1.4-4-3.6-6.2-6.1-9.4-2.5-3-6.5-5.3-10.3-4.3-3.5 0.9-5.9 4.6-6.4 8.2-0.6 3.7 0.3 7.4 1.1 11 0.6 2.3 0.7 5.8 1.9 7.8 0.4 0.7 0.9 1 1.5 1.2z"/><path  d="m374.3 189.5c0.2 0.4 0.2 0.3 0.3 0-0.2-2-2.2-4.6-1.1-5.6 0.1 0-0.2-1.3-0.4-1.1-0.4 0.3-1.1 0.9-1.1 1.3-0.1 1.4 1.5 4.2 2.3 5.4z"/><path class="j" d="m390.2 192.6c-0.9-1.8-2.2-3.5-3.2-5.1-1.5-2.3-2.4-7.1-5.7-7.7-1.2-0.3-3 0.6-4.2 1.1-1.1 0.6-3.7 0.7-4.3 1.8-0.4 0.8 0.1 3.2 1 5.3q0 0-0.1 0c-0.5 0.3-0.7 1.1-0.4 1.8 0.4 0.7 1.1 1.1 1.7 0.8q0.1 0 0.2-0.1c0.2 0.4 1.1 1.5 1.4 1.9 1.4 1.5 3 2.3 4.7 1.9 0.2 0 1.6 2.8 1.7 3.1 0.5 0.9 0.9 1.7 1.9 1.9 1.1 0.3 2.1 0.4 3.1 0.2 1.1-0.2 2.1-0.7 2.6-1.6 0.5-0.8 0.6-1.8 0.5-2.8-0.2-0.8-0.5-1.7-0.9-2.5z"/><path  d="m368.8 179.6q0-0.1 0-0.1c0.6-1.1 1.6-1.9 2.7-2.4 0.6-0.2 1.2-0.3 1.7-0.2 0.6 0.1 1.1 0.6 1.1 1.2 3-2.7 6.9-2 9 1.3 0.5 0.7 3.7 5.6 1.8 6.1-0.2 0-0.4-0.1-0.6-0.2-0.9-0.5-1.5-1.3-2.2-2.1-0.8-1-2-2.2-3.5-1.8-1.9 0.6-3.1 2-4.9 2.9-1.4 0.6-3.2 0.2-4.4-0.7-1.5-1-1.6-2.5-0.7-4z"/><path class="j" d="m384.7 183.3c-0.4-0.3-0.9-0.3-1.3 0-0.5 0.1-0.8 0.8-0.8 1.2 0.1 0.7 0.5 1.4 1.1 1.7 1.7 0.6 2.2-2.1 1-2.9z"/><path  d="m380.2 190.6c-0.4 0.1-0.7 0.3-1 0.7-0.1 0.1 0.1 0.4 0.3 0.3 0.3-0.1 0.6-0.2 0.9-0.3 0.4-0.2 0.2-0.9-0.2-0.7z"/><path  d="m382.4 193.3c-0.3 0.2-0.6 0.5-1 0.8-0.3 0.1-0.1 0.6 0.2 0.5 0.5-0.2 1.1-0.5 1.3-1 0.1-0.2-0.3-0.4-0.5-0.3z"/><path  d="m384.6 185q-0.1-0.2-0.2-0.3c-0.3-0.4-0.9 0.1-0.6 0.4q0.1 0.2 0.2 0.4c0.1 0.1 0.3 0.1 0.4 0.1 0.1-0.1 0.2-0.1 0.2-0.2 0.1-0.1 0.1-0.3 0-0.4z"/><path  d="m374.7 189.4c0.1-0.5-0.6-0.6-0.7-0.1 0 0.3 0.1 0.6 0.4 0.8 0.2 0 0.3-0.1 0.3-0.3 0.1-0.1 0-0.3 0-0.4z"/><path  d="m409.8 236c-0.4 0.5-1 0.9-1.3 1.4-0.2 0.4 0.1 0.7 0.5 0.7 0.8-0.1 1.3-1 1.7-1.6 0.4-0.5-0.5-1-0.9-0.5z"/><path  d="m364.3 231c-0.4 0.3-0.7 0.6-1.2 0.6-0.5 0-0.5 0.7 0 0.8 0.7 0 1.5-0.3 1.7-1 0.2-0.4-0.3-0.6-0.5-0.4z"/><path class="a" d="m416.9 241.6c-0.1-0.2-0.4-0.2-0.4 0.1-0.2 1.1 0 1.7 0.3 2.7 0.4 2.1-0.1 3.8-0.9 5.6-0.9 2.1-2.1 4.3-1.9 6.7 0 0.3 0.5 0.4 0.6 0.1 1.1-5.1 5.4-10 2.3-15.2z"/><path class="a" d="m400.4 201.9c0.1-0.2-0.2-0.3-0.3-0.1-1.8 4-1.1 9.4 0.1 13.6 0 0.1 0.2 0.1 0.2-0.1-0.4-4.8-1-8.6 0-13.4z"/><path class="a" d="m385.2 215.9c-1.2-1.7-2-3.3-2.7-5.2-0.1-0.3-0.5-0.2-0.4 0.1 0.4 1.9 1.5 3.8 2.8 5.3 0.2 0.2 0.5-0.1 0.3-0.2z"/><path class="a" d="m417.8 204.7c-0.1-0.2-0.4-0.1-0.3 0.2 0.8 2.3 1.5 4.6 1.9 7.1 0 0.1 0.3 0.1 0.3-0.1-0.2-2.5-0.8-4.9-1.9-7.2z"/><path class="j" d="m334.9 243.2q-0.5 1.2-0.9 2.5c-0.1 0.2-0.2 0.6-0.5 0.7-0.4 0.2-0.9-0.2-1-0.6-0.2-0.4-0.1-0.9 0-1.3 0.2-1 0.2-2 0.5-2.9 0.2-0.9 0.7-1.9 1.5-2.4 1.1-0.7 2.5-0.5 2.2 0.8-0.2 0.9-1.5 2.2-1.8 3.2z"/><path class="b" d="m41.9 291.5h285.1"/><path class="d" d="m159.4 296h101"/><path class="b" d="m320.9 312.6h148.5"/><path class="b" d="m258.9 312.6h48.5"/><path class="m" d="m260.1 389.5q-0.6 0.7-1.1 1.4l-0.5-0.2c0-0.3-0.3-0.5-0.6-0.5-0.4 0.1-0.6 0.4-0.6 0.7 0.1 0.3 0.4 0.6 0.7 0.5q0.1 0 0.2 0l0.4 0.2q-0.3 0.9-0.5 1.8l0.8 0.1c0.2-1.3 0.8-2.5 1.7-3.5z"/><path class="m" d="m265.6 387.2q-0.3 0-0.5 0l-0.1-0.6c0.2-0.2 0.3-0.4 0.3-0.7-0.1-0.4-0.4-0.6-0.8-0.6-0.4 0.1-0.7 0.4-0.6 0.8 0 0.3 0.1 0.5 0.4 0.6v0.6q-1 0.2-2 0.6l0.3 0.7q1.4-0.7 3-0.7 0.7 0 1.5 0.2l0.1-0.7q-0.8-0.2-1.6-0.2z"/><path class="m" d="m272.2 389.7c0.3 0 0.6-0.3 0.5-0.6 0-0.4-0.3-0.6-0.7-0.6-0.3 0.1-0.5 0.3-0.5 0.6l-0.4 0.4q-0.6-0.6-1.4-1.1l-0.4 0.6c1.1 0.7 2 1.7 2.6 2.9l0.6-0.3q-0.3-0.8-0.9-1.5l0.4-0.4q0.1 0 0.2 0z"/><path class="m" d="m265 397.4q-0.5 0-1.1 0c-0.9 0-1.7 0-2.5-0.1-0.4-0.1-0.8-0.2-1.3-0.3 1.1 1.8 3.1 3.1 5.4 3.1 2.9 0 5.3-1.9 6-4.5q-1 0.7-2.5 1.1c-1.2 0.4-2.5 0.6-4 0.7z"/><path fill-rule="evenodd" class="m" d="m271.6 393.9q0.1 0.3 0.1 0.6c-1.4 1.2-3.8 2-6.7 2.1-2.6 0.2-4.7-0.2-5.4-0.7q-0.1-0.6-0.1-1.3c0-3.2 2.7-5.9 6.1-5.9 3 0 5.6 2.2 6 5.2zm-6.3-0.5c0-1-0.8-1.9-1.9-1.9-1 0-1.8 0.9-1.8 1.9 0 1 0.8 1.8 1.8 1.8 1.1 0 1.9-0.8 1.9-1.8zm4.2-0.4c0-0.8-0.6-1.4-1.3-1.4-0.8 0-1.4 0.6-1.4 1.4 0 0.7 0.6 1.3 1.4 1.3 0.7 0 1.3-0.6 1.3-1.3z"/><path class="m" d="m281.6 390.6c-0.3-0.1-0.8-0.3-1.4-0.3-0.5 0.1-0.8 0.4-0.8 1v0.9h2.2v1.7h-2.2v5.5h-2v-5.5h-1.3v-1.7h1.3v-0.9c0-1.7 0.9-2.8 2.6-2.8 0.6 0 1.2 0.2 1.6 0.3z"/><path class="m" d="m286.3 393.9q-0.3 0-0.5 0c-0.9 0-1.5 0.5-1.5 1.6v3.9h-2v-7.2h1.9v0.8c0.5-0.7 1.1-1 2-1 0.4 0 0.9 0.1 1.1 0.4z"/><path fill-rule="evenodd" class="m" d="m294 395.8c0 0.2-0.1 0.5-0.1 0.6h-5.1c0.3 1.1 1 1.5 1.9 1.5 0.6 0 1.3-0.2 1.8-0.7l1.1 1.3c-0.8 0.7-1.8 1.1-3 1.1-2.2 0-3.7-1.5-3.7-3.8 0-2.2 1.4-3.8 3.6-3.8 2 0 3.5 1.5 3.5 3.8zm-5.1-0.7h3.1c-0.2-0.9-0.7-1.4-1.5-1.4-0.9 0-1.5 0.5-1.6 1.4z"/><path fill-rule="evenodd" class="m" d="m301.6 395.8c0 0.2 0 0.5 0 0.6h-5.1c0.2 1.1 0.9 1.5 1.8 1.5 0.7 0 1.3-0.2 1.9-0.7l1.1 1.3c-0.8 0.7-1.9 1.1-3.1 1.1-2.2 0-3.7-1.5-3.7-3.8 0-2.2 1.5-3.8 3.6-3.8 2.1 0 3.5 1.5 3.5 3.8zm-5.1-0.7h3.2c-0.2-0.9-0.8-1.4-1.6-1.4-0.9 0-1.4 0.5-1.6 1.4z"/><path fill-rule="evenodd" class="m" d="m310 395.8c0 2.1-1.5 3.8-3.5 3.8-1 0-1.6-0.4-2.1-1v3.7h-1.9v-10.1h1.8v0.8c0.5-0.6 1.2-1 2.2-1 2 0 3.5 1.6 3.5 3.8zm-5.7 0c0 1.1 0.7 2 1.8 2 1.2 0 1.9-0.9 1.9-2 0-1.1-0.7-2-1.9-2-1.1 0-1.8 0.9-1.8 2z"/><path class="m" d="m313.1 389.9c0 0.7-0.6 1.2-1.3 1.2-0.7 0-1.2-0.5-1.2-1.2 0-0.7 0.5-1.3 1.2-1.3 0.7 0 1.3 0.6 1.3 1.3zm-0.3 9.5h-1.9v-7.2h1.9z"/><path class="m" d="m316 394.8l2.7-2.6h2.4l-3.5 3.4 3.5 3.8h-2.4l-2.7-2.9v2.9h-1.9v-10.7h1.9z"/><path fill-rule="evenodd" class="m" d="m184.4 399.3v-1c-0.5 0.7-1.4 1.2-2.4 1.2-1.8 0-3.1-1.4-3.1-3.7 0-2.3 1.3-3.7 3.1-3.7 1 0 1.8 0.4 2.4 1.2v-3.8h1.1v9.8c0 0-1.1 0-1.1 0zm0-1.9v-3.2c-0.4-0.6-1.2-1.2-2.1-1.2-1.4 0-2.3 1.2-2.3 2.8 0 1.6 0.9 2.7 2.3 2.7 0.9 0 1.7-0.5 2.1-1.1z"/><path fill-rule="evenodd" class="m" d="m186.9 395.8c0-2.1 1.5-3.7 3.5-3.7 2.2 0 3.4 1.6 3.4 3.8v0.2h-5.7c0.1 1.4 1 2.5 2.5 2.5 0.8 0 1.7-0.3 2.2-0.9l0.5 0.7c-0.7 0.7-1.6 1.1-2.8 1.1-2.1 0-3.6-1.5-3.6-3.7zm3.5-2.8c-1.5 0-2.3 1.2-2.3 2.3h4.6c0-1-0.7-2.3-2.3-2.3z"/><path class="m" d="m194.6 398.4l0.6-0.8c0.4 0.5 1.3 1 2.3 1 1.1 0 1.7-0.5 1.7-1.2 0-1.7-4.4-0.7-4.4-3.3 0-1.1 0.9-2 2.6-2 1.2 0 2.1 0.4 2.7 1l-0.6 0.8c-0.4-0.6-1.2-0.9-2.1-0.9-0.9 0-1.5 0.4-1.5 1.1 0 1.5 4.3 0.5 4.3 3.3 0 1.1-0.9 2.1-2.7 2.1-1.2 0-2.2-0.4-2.9-1.1z"/><path class="m" d="m201.5 390.5c0-0.4 0.3-0.8 0.7-0.8 0.4 0.1 0.8 0.4 0.8 0.8 0 0.4-0.4 0.7-0.8 0.7-0.4 0-0.7-0.3-0.7-0.7zm0.2 8.8v-7.1h1.1v7.1z"/><path fill-rule="evenodd" class="m" d="m204.6 401.1l0.5-0.8c0.6 0.7 1.3 1 2.3 1 1.2 0 2.3-0.6 2.3-2.1v-1.1c-0.5 0.8-1.4 1.3-2.4 1.3-1.8 0-3.1-1.4-3.1-3.7 0-2.2 1.3-3.6 3.1-3.6 1 0 1.8 0.4 2.4 1.2v-1.1h1.1v6.9c0 2.4-1.6 3.1-3.4 3.1-1.2 0-2-0.2-2.8-1.1zm5.1-3.8v-3.1c-0.4-0.6-1.2-1.2-2.1-1.2-1.4 0-2.3 1.2-2.3 2.7 0 1.6 0.9 2.7 2.3 2.7 0.9 0 1.7-0.5 2.1-1.1z"/><path class="m" d="m217.4 399.3v-4.6c0-1.3-0.6-1.7-1.6-1.7-0.8 0-1.7 0.6-2.1 1.1v5.2h-1.1v-7.1h1.1v1.1c0.5-0.6 1.5-1.2 2.6-1.2 1.4 0 2.2 0.7 2.2 2.2v5c0 0-1.1 0-1.1 0z"/><path fill-rule="evenodd" class="m" d="m219.9 395.8c0-2.1 1.5-3.7 3.5-3.7 2.2 0 3.4 1.6 3.4 3.8v0.2h-5.7c0.1 1.4 1 2.5 2.5 2.5 0.8 0 1.7-0.3 2.2-0.9l0.5 0.7c-0.7 0.7-1.6 1.1-2.8 1.1-2.1 0-3.6-1.5-3.6-3.7zm3.5-2.8c-1.5 0-2.3 1.2-2.3 2.3h4.6c0-1-0.7-2.3-2.3-2.3z"/><path fill-rule="evenodd" class="m" d="m233.3 399.3v-1c-0.5 0.7-1.3 1.2-2.3 1.2-1.9 0-3.2-1.4-3.2-3.7 0-2.3 1.3-3.7 3.2-3.7 0.9 0 1.8 0.4 2.3 1.2v-3.8h1.1v9.8c0 0-1.1 0-1.1 0zm0-1.9v-3.2c-0.3-0.6-1.2-1.2-2.1-1.2-1.4 0-2.2 1.2-2.2 2.8 0 1.6 0.8 2.7 2.2 2.7 0.9 0 1.8-0.5 2.1-1.1z"/><path fill-rule="evenodd" class="m" d="m239.7 399.3v-9.8h1.1v3.8c0.6-0.8 1.4-1.2 2.4-1.2 1.8 0 3.1 1.4 3.1 3.7 0 2.3-1.3 3.7-3.1 3.7-1 0-1.9-0.5-2.4-1.2v1c0 0-1.1 0-1.1 0zm3.2-0.8c1.4 0 2.3-1.1 2.3-2.7 0-1.6-0.9-2.8-2.3-2.8-0.9 0-1.7 0.6-2.1 1.2v3.2c0.4 0.6 1.2 1.1 2.1 1.1z"/><path class="m" d="m247.5 401.1c0.2 0.1 0.5 0.1 0.6 0.1 0.5 0 0.8-0.2 1.1-0.7l0.5-1.1-3-7.2h1.2l2.3 5.8 2.4-5.8h1.2l-3.6 8.6c-0.4 1-1.1 1.4-2 1.4-0.3 0-0.6-0.1-0.8-0.1z"/></svg>