<svg xmlns="http://www.w3.org/2000/svg" width="500" height="323" version="1.2"><style>.a{fill:#fff}.b{fill:none;stroke:#110809;stroke-miterlimit:10;stroke-width:2}.c{fill:#ffbf00}.d,.e,.f{fill:none;stroke:#110809;stroke-miterlimit:10}.e,.f{fill:#fff;stroke:#000}.f{stroke-width:1}.g{stroke-width:2}.g,.i{fill:none;stroke:#000;stroke-miterlimit:10}.j{fill:#ed926e}.k{fill:#a7d8eb}.m{fill:#112129}</style><path d="M0-79h500v500H0z" class="a"/><path d="M99.9 231.5H385" class="b"/><path d="M381.5 301.1c0 .6-.1 1.2-.6 1.7-.6.8-1.4 1.3-2.3 1.7-2.3 1.1-4.9 1.5-7.3 2.6-1.5.7-3.6 2.7-2.2 4.4 1 1.1 3.6 1 4.9.9q7.3-.5 14.5-1.8c.5 0 .9-.1 1.3-.4.5-.5.6-1.3.6-1.9q.2-5.2.1-10.4c0-3.3-.8-4.7-4.1-5.8-1.1-.4-2.4-.6-3.4 0-.8.4-1.2 1.4-1.4 2.3-.4 1.4-.3 2.9-.2 4.4 0 .8.2 1.6.1 2.3" class="c"/><path d="M434.1 230.9c-.2-2.1-2.5-2.9-4.3-3.8-4.3-2-9.2-2.6-13.8-1.6-5.4 1.1-10 4.3-15.2 6-6.9 2.3-13.8 4.6-20.5 7.8-2 .9-3.9 2.2-5.6 3.7-1.8 1.7-3.3 3.5-3.7 6-.6 3.2.1 6.5.7 9.6.7 3.5 1.5 7 2.1 10.5l4.7 28.9c.1.6.7 1 1.3.9l13.6-3c.6-.1 1-.7.9-1.3-.6-2.3-1-4.6-.7-6.9.1-1.3.5-2.7.6-4 .2-3-1.3-6.1-.4-8.9.2-.8.6-1.5.8-2.3.2-.9.1-1.8 0-2.6q-.4-2.8-.9-5.5c-.2-1.4-1.1-3.4-.9-4.8.4-2.8 5.1-1.8 7.2-1.8 2.6-.1 5.3-.2 7.9-.4 5.4-.5 10.7-1.6 15.4-4.2 2.6-1.5 4-4.8 5.3-7.3 1.6-3.1 2.8-6.4 3.9-9.7.5-1.6 1.8-3.6 1.6-5.3"/><path d="M206.5 234.7h105.9M122 234.7h31.6" class="d"/><path d="m120.6 33.9 37.1 56.2c.9 1.3.5 3-.8 3.9l-.2.2c-1.3.8-3 .4-3.9-.8l-37.1-56.2c-.8-1.3-.5-3 .8-3.9l.2-.2c1.3-.8 3.1-.4 3.9.8z" class="e"/><path d="M186.2 134.2c-13.9 10.8-34 8.3-44.8-5.7-10.9-14-8.3-34 5.6-44.9 14-10.8 34.1-8.3 44.9 5.7 10.9 14 8.3 34-5.7 44.9"/><path d="M191.2 113.6c-2.6 13.5-15.7 22.4-29.2 19.8-13.6-2.6-22.4-15.6-19.9-29.2 2.6-13.5 15.7-22.4 29.2-19.8 13.6 2.6 22.5 15.6 19.9 29.2z" class="f"/><path d="M185.9 111c-1.2 10.6-10.7 18.3-21.3 17.1" class="g"/><path d="M244.1 158.7c3.6 0 6.6-2.8 6.6-6.4v-28.7c0-5.9-4.6-10.9-10.5-11-6-.1-10.8 4.7-10.8 10.7v29c0 3.6 3 6.4 6.6 6.4z" style="opacity:.2;fill:#ffc200"/><path d="M246.1 154.2c1-1.4 1.5-3.2 1.5-5.1v-22.7c0-4.6-3.4-8.3-7.5-8.3-4.2 0-7.6 3.7-7.6 8.3v22.7c0 1.9.6 3.7 1.5 5.1z" class="c"/><path fill-rule="evenodd" d="M240.4 154h-.7c-1.8 0-3.2-1.4-3.2-3.2 0-5.8.1-11.6-.3-17.4 0-.9-.1-1.9.3-2.8.2-.3.4-.6.8-.6.2 0 .4.3.6.5.2.4.2.8.1 1.2-.1.1-.1.2-.2.3-.3.1-.4-.3-.4-.6s.1-.6.2-.8c.6-1.2 2.1-.4 2.2.6.1.5-.1 1.3-.6.7-.3-.4.1-1.2.4-1.5.4-.5 1.2-.6 1.7-.2s.6 1.2.2 1.7c-.1 0-.3.1-.4 0v-.1c-.3-.6 0-1.4.6-1.6.7-.3 1.5 0 1.7.7.1.3.1.7-.1 1-.1.1-.2.3-.3.2-.2 0-.3-.2-.3-.3-.1-.3 0-.7.2-.9.1-.1.3-.2.4-.2l.2.2v.3c.1 4.3.1 8.6.1 12.8v6.8c0 1.8-1.4 3.2-3.2 3.2z" class="i"/><path d="M237.7 154.8h4.7v8.3h-4.7z" class="c"/><path d="M245.7 156h-11.3c-.5 0-.9-.4-.9-.9v-.1c0-.6.4-1 .9-1h11.3c.5 0 .9.4.9 1v.1c0 .5-.4.9-.9.9M245.7 158.1h-11.3c-.5 0-.9-.4-.9-1v-.1c0-.5.4-1 .9-1h11.3c.5 0 .9.5.9 1v.1c0 .6-.4 1-.9 1"/><path fill-rule="evenodd" d="M158.9 211q0 9.8-5.2 14.9-5.2 5.2-13.9 5.2H118v-67.7h20.7q9.6 0 14.4 5 4.9 4.9 4.9 13.5 0 4.3-1.8 7.9t-6.5 5.7v.5q2.4.8 4.2 2.3 1.7 1.5 2.8 3.5 1.2 2.1 1.7 4.4.5 2.4.5 4.8m-11.8-28.7q0-4.1-2.2-6.4-2.2-2.4-7.1-2.4h-8.7v17.7h8.8q4.8 0 7-2.5 2.2-2.4 2.2-6.4m.9 28.1q0-4.3-2.1-6.9-2.1-2.7-7.1-2.7h-9.7v19.8h9.8q2.6 0 4.4-.8 1.7-.8 2.8-2.2t1.5-3.3q.4-1.8.4-3.9"/><path fill-rule="evenodd" d="m198.8 231.1-10.1-28.2H180v28.2h-11.1v-67.7h21.8q4.2 0 7.8 1.2t6.2 3.7q2.6 2.4 4 6 1.5 3.7 1.5 8.6 0 6.4-2.8 11-2.7 4.7-8 7.1l11.5 30.1zm.5-48.2q0-4.8-2.5-7.1-2.4-2.3-7-2.3H180v19.4h9.8q4.3 0 6.9-2.6 2.6-2.5 2.6-7.4" class="c"/><path fill-rule="evenodd" d="M249.1 216.5h-18.8q-.2.9-.8 2.9t-1.2 4.4q-.6 2.3-1.2 4.4-.5 2-.8 2.9h-11.6l19.6-67.7H245l19.6 67.7h-11.7zm-12.9-23.6-3.5 13.7h13.8l-3.4-13.6q-.2-.8-.6-2.9-.4-2-1-4.3-.5-2.2-1-4.2t-.6-2.8h-.5z"/><path d="M305.7 231.1 289.8 202l-7.1-13.9-.3.1v42.9h-11.2v-67.7h10.2l15 27.6 8 15.2.4-.1v-42.7h11v67.7z"/><path fill-rule="evenodd" d="M348.3 163.4q6.8 0 11.7 2.5 4.8 2.6 7.1 8.4 1.3 3.6 1.6 8.9.2 5.3.2 12 0 8.3-.1 14.1-.1 5.9-1.6 10.1-1.3 3.4-3.3 5.6-2.1 2.3-4.7 3.6t-5.7 1.9-6.4.6h-19.5v-67.7zm9.4 25.2q0-6.9-2.4-10.9t-8.6-4h-7.9v47.1h8q6.2 0 8.6-3.3 2.3-3.2 2.3-9.1z"/><path d="M344.8 239.4c2.5-.3 4.8-1.3 7.3-1.5 4.2-.4 9.3-2.2 12.8-4.7 1.6-1.2 2.8-2.8 4.3-4 1.1-1 2.5-1.6 3.7-2.5 2.9-2.3 5.7-5 8-7.9 2.3-3 3.7-6.7 3.9-10.5.1-1.5 0-3.1-.8-4.4-2-3.6-6.8-1.5-9.6 0-3.2 1.7-6 4.2-7.9 7.3l-.4.6c-1 1.8-1.8 3.7-3.2 5.1-1.1 1.2-2.9 2.2-3.7 3.7-1.1 1.9-2 3.5-4 4.7-2.4 1.4-5.3 1.8-7.8 3.3-2.2 1.3-4.4 2.7-6.7 4.1-2.1 1.2-3.8 3.1-6.1 4-1.5.6-3.2.7-4.6 1.5-2 .9-2.8 4.2-3.3 6.2-.1.3-.2.5-.1.8.3 2 2.8 1 3.7 0 .7-.7.5-1.5 1.1-2.3.7-.8 2-1 3-1.1 1.5-.1 3 .1 4.3-.6.7-.3 1.2-.8 1.9-1.1 1-.5 2.2-.5 3.3-.6q.4 0 .9-.1" class="j"/><path d="M299.2 155.2c-1.7 3 .9 5.2 3.1 7.2.6.6 1.2 1.1 1.9 1.4 1.3.6 2.8.5 4.2.3 10-1.1 20.2-2.4 30-4.6 2.3-.5 4.6-1.1 6.9-1.6 3-.7 6.1-2 9-3.1 2.9-1.2 5.6-2.8 8-4.8l.1-.1c.4-.3.8-.6 1.1-1.1 1.2-1.4 2.1-3.2 1.4-4.8-.8-1.9-3.2-2.4-5.3-2.6-6.1-.5-12.3.2-18.3 1.1-4.1.6-8.2 1.5-12.3 2s-8.1 0-12.3.1c-7.2.2-14.1 4.3-17.5 10.6"/><path d="M317 140.3c-1.9-.8-4.7-.4-6.3-1.8-1.7-1.5-2.9-4.2-3.9-6.2-.6-1.4-2.9-2.9-3.2-4.1-.2-.6.3-1.1.5-1.6.5-1 .3-2.2.9-3.1.5-.9 1.6-1.4 2.3-2.1.6-.6 1-1.4 1.4-2.1 1.4-2.7 3.3-5.6 3.8-8.6.2-1.6.2-3.3-.3-4.9-.8-1.9-2.8-4-4.9-3.1-2.2.9-3.8 2.6-5.5 4.1-2.2 1.8-4.5 3.6-5.6 6.3-.6 1.4-.8 2.9-1.3 4.4s-1.3 3-1.9 4.5q-.8 2.2-1.1 4.6c0 .7-.1 1.5.2 2.2.2.8.8 1.5 1.4 2.1 2.8 3 5.7 5.8 9 8.2 1 .6 1.9 1.3 3 1.7 2.1 1 2.9 2.7 5 3.6 1.7.8 3.6 1.3 5.5 1.4 1.4.1 3.7-.2 3.8-1.9.2-1.6-1.5-3.1-2.8-3.6M356.4 131.1c-1.1 1.6-2.6 2.8-4 4.1s-2.9 2.4-4.6 3.3c-1.4.6-2.9 1-4.3 1.7-1.7.8-3.2 1.9-4.8 2.8-1 .6-4.4 2.3-5.4 1-.9-1.2 1.1-3.1 2-3.6 2.4-1.5 4.2-3.9 5.6-6.4.5-.9.9-1.8 1.4-2.6 1.4-2.2 3.4-4 5.8-5.1-1.6-1.8-2.9-4-3.6-6.3-2.8-1.4-4.9-4.2-5.5-7.3-.5-2.4-.3-6.5 2.6-7.2 2.7-.6 6.4.4 8.4 2.1 2.2 1.9 3.5 4.7 4.1 7.6.2 1.1.4 2.2.7 3.3.9 2.9 2.8 5.5 2.9 8.6 0 1.6-.5 2.9-1.3 4" class="j"/><path d="M347.7 104.8c-1.3-1.1-2.7-2.2-4.2-3.1-2.5-1.5-5.3-2.5-8.2-2.5-1.6.1-3.4-.2-4.9.1-1.7.3-3.3 1-5 1.1-3 .1-5.9-.8-8.7-1.3-2.9-.5-6.2.6-8.7 2-2.7 1.6-8.2 5.2-10.3 7.5 2.6 4.3 8.1 6.8 10.2 11.3q.7-.4 1.3-.9-.1 6.6.1 13.1c.1 4.3-.1 8.8.5 13 .7-.6 1.8-.3 2.7-.4h11.2c3.4 0 6.9 0 10.4-.5 1.8-.3 3.5-.5 5.3-.5 1-3.3.6-7.2.7-10.5.1-2.8.1-5.7-.1-8.5 0-1.5-.1-3-.2-4.4 0-.8-.6-2.3 0-2.9.6.5 1.2 1.2 1.7 1.8q4.3-6.1 8.8-12.1-1.3-1.2-2.6-2.3"/><path d="M321.2 165.1c-.6.7-14.2 3.6-14.2 3.6l-.6-6.8 12.6-4.6z" class="j"/><path d="M355.5 156.9c1.6-.9 3.2-1.8 4.9-2.5 1.8-.6 3.8-1.1 5.2-2.4 1.5-1.4 1.9-3.6 2.3-5.6.5-2.2.5-4.7-.1-6.9-.9-3.1-3.5-5.7-6.6-6.5-2-.4-4-.1-5.8.7-1.3.7-2.4 1.7-3.7 2.4-1.1.5-2.2.9-3.4 1.3-3.4 1.4-6.6 3.4-9.7 5.3-3.2 1.9-6 4.3-9 6.3-1.2.8-13.8 7-13.8 7 1.6 3.6 3 7.4 4.5 11.1 8.2-1.1 16.1-3.7 24-5.8 1.6-.5 3-1.1 4.6-1.5 1.8-.4 3.5-1.1 5-2q.8-.5 1.6-.9"/><path d="M306.6 169.5c-2.5.5-5-.1-7.7-.4-2.1-.2-4.3.2-6.4-.1-2.7-.5-4.9-2.4-5.1-5.2-.1-1.6-.2-3.3.8-4.5.9-1 2.3-1.3 3.6-1.2s2.5.6 3.7 1c2.1.7 4.2 1.3 6.4 1.7 1.7.4 3.2 1.3 4.9.4.1 0 .2-.1.3-.1.1.1.2.2.2.3q.9 2.6 1.7 5.2c.2 1 .7 1.5-.1 2.1-.6.4-1.6.6-2.3.8" class="c"/><path d="M333.6 165.1c.6.7 14.2 3.6 14.2 3.6l.6-6.8-12.6-4.6z" class="j"/><path d="M298.8 157.7c-2.6-1-5.1-2.1-7.5-3.6-.8-.5-1.6-1-2.2-1.7-.8-1.1-1.1-2.5-1.3-3.8-.9-4.8-2.2-8.6 1.3-12.7 2.9-3.4 7.5-4.7 11.4-2.2 2.5 1.5 4.2 4.4 7.1 5.4 1.5.5 3.2.4 4.7 1.1 1.3.6 2.7 1.7 4 2.5 3.1 1.9 5.9 4.3 9 6.3 1.2.8 13.8 7 13.8 7-1.6 3.6-3.1 7.4-4.6 11.1-8.1-1.1-16-3.7-24-5.8-3.9-1.1-7.9-2.2-11.7-3.6"/><path d="M348.3 169.5c2.4.5 5-.1 7.7-.4 2.1-.2 4.2.2 6.3-.1 2.6-.4 5.6-3.1 5.8-5.9 0-.8-.2-1.7-.6-2.5-.1-.4-.3-.9-.6-1.2-.7-.8-1.7-1.3-2.7-1.4-1.6-.1-3.2.4-4.7.8-1.5.5-3 .7-4.4 1.3-2 .9-4.1 1.2-6.2.9-.5-.1-1.1-.2-1.6 0-1.2.3-1.1 2.1-1.2 3-.1 1.5-.2 3-.7 4.4.9.5 1.9.9 2.9 1.1" class="c"/><path d="M330.7 99.2c-.4 0-.8 0-1.1-.2-.6-.3-.8-.9-.9-1.6q-.1-1.2 0-2.4.1-.4.1-.7c0-1.5.1-3.1.5-4.5 1.5 0 1.5-1.1 1.6-2.4.1-.4.1-.8-.2-1.1-.2-.3-.8-.3-.9.1q.1-1.5.1-3c0-.9.2-1.6-.7-2.1-1.4-.8-3.1-.8-4.7-.5-1.2.3-3.1.8-4.1 1.7-1 1-.9 2.4-1.2 3.7l-.1.1q-.1.1-.2 0c-.6 0-1 .5-1.2 1-.1.5 0 1.1.2 1.6.1.3.2.6.5.9.2.2.7.2.9 0 .5 1.1.9 2.3 1.2 3.4 0 .2.1.4.2.6v1c.1 1.1-.1 2.1-.3 3.2-.1.3-.1.7-.3.9-.4.5-1.1.5-1.7.5.4.6.5 1.3.9 1.9.7 1 1.7 1.8 2.9 2 1.8.2 3.6.3 5.3-.3.8-.3 1.6-.8 2.2-1.4.7-.7 1-1.4 1.2-2.4z" class="j"/><path d="M340.8 148.4h-33.6c-.9 0-1.7-.8-1.7-1.7v-19.9c0-.9.8-1.6 1.7-1.6h33.6c.9 0 1.7.7 1.7 1.6v19.9c0 .9-.8 1.7-1.7 1.7z" class="e"/><path d="M326.2 136c0 1.2-1 2.2-2.2 2.2s-2.2-1-2.2-2.2 1-2.1 2.2-2.1 2.2.9 2.2 2.1"/><path fill-rule="evenodd" d="M330.9 84.4c-.7 3.5-1.5 9.8-6.3 9.9-1.6.1-3.1-.6-4.1-1.9-1-1.5-1.4-3.5-1.6-5.3-.3-1.8-.3-3.7-.2-5.5.1-.7.3-1.5.8-2 .3-.3.6-.5.9-.7q1.2-.7 2.6-1.1c.6-.1 1.2-.2 1.7-.5.3-.2.6-.5.9-.8q.75-.6 1.8-.6c.5.1 1 .2 1.3.5s.4.6.6.9q.2.4.4.9c.2.2.3.5.3.8v.5c0 .3.2.5.3.7.9 1.2.9 2.8.6 4.2m-5.8 6.3c-.5.2-.9.2-1.4 0-.6-.3-1 .6-.5.9.8.4 1.6.3 2.4 0 .6-.3.2-1.2-.5-.9m4.4-7.3c-.3-.9-1-1.3-2.1-1.4h-2.6c-1.4 0-2.9 0-4 .8-.3.2-.7.5-.8.9-.7 1.8-.4 4.6.6 6.7.6-.8 2.5-.9 3.3-1 1.3-.1 3.3-.1 4.3.9l.4-.8c.1-.7.4-1.5.5-2.2.2-1.3.3-2.6.4-3.9"/><path d="M354.4 128.8c-.1.4-.4.8-.6 1.1-.2.2 0 .6.3.4.5-.3.8-.7 1.1-1.3.1-.5-.6-.7-.8-.2M294.4 127.9c-.3-.2-.6-.3-.6-.7s-.6-.4-.6 0c0 .5.4 1.2 1 1.1.2 0 .4-.2.2-.4"/><path d="M338.8 155.2c-.1-.4-1.2-.8-1.5-1q-1-.5-1.9-1c-1.2-.6-2.5-1.2-3.7-1.8-2.6-1.4-5.1-2.8-7.7-4.1-.2-.1-.4.2-.2.3 2.6 1.6 5.4 3 8 4.4 1.3.7 2.5 1.4 3.8 2l1.8 1c.6.3.9.5.8 1.2q-.1.9-.4 1.8v.3c0 .2.2.3.4.1.5-.8.9-2.2.6-3.2" class="a"/><path d="M223.9 124.8c-3 0-6 .1-9.1-.2-.3 0-.3.5 0 .5 3 .3 6.2.5 9.2.1.2 0 .1-.4-.1-.4M227.7 113.4c-1.5-1.3-3.2-2.4-4.8-3.6-.3-.2-.6.3-.3.5 1.6 1.2 3.1 2.4 4.8 3.4.2.1.4-.1.3-.3M236.8 98.5c-.1-.4-.7-.2-.6.2.7 2.1 1.2 4.3 2.1 6.3.1.3.5.1.4-.1-.4-2.2-1.2-4.3-1.9-6.4M250.5 100.5c-.6 2.1-1.6 3.9-2.4 5.9-.2.3.3.5.5.3 1.6-1.6 2.3-3.9 2.7-6 .1-.5-.6-.7-.8-.2M260.6 112.7c-1.7.7-3.7 1.5-4.9 2.9-.2.3 0 .6.3.5 1.7-.8 3.2-2 5-2.8.4-.2 0-.8-.4-.6M264.5 125.8c-2.2.6-4.4.6-6.6 1-.3 0-.3.5 0 .5 2.2.5 4.7-.1 6.9-.7.5-.1.3-.9-.3-.8M251.8 82.1c-18.7 0-33.7-15.1-33.7-33.7s15-33.7 33.7-33.7c18.6 0 33.6 15.1 33.6 33.7s-15 33.7-33.6 33.7"/><path d="M260.5 72.5c-13.3 4.8-28-2-32.8-15.4-4.8-13.3 2-28 15.3-32.8 13.4-4.8 28 2 32.9 15.4 4.8 13.3-2.1 28-15.4 32.8z" class="f"/><path d="M257.9 63.3c-8.3 3.4-17.7-.6-21-8.8-3.4-8.2.5-17.6 8.8-21 8.2-3.4 17.6.6 21 8.8 3.3 8.2-.6 17.6-8.8 21"/><path d="M260.4 49.8c-.8 4.8-5.3 8.1-10.1 7.3-4.7-.8-8-5.3-7.2-10.1s5.3-8 10.1-7.3c4.8.8 8 5.3 7.2 10.1" class="c"/><path d="m303.1 39.9-52.3 8.8M254.5 43.8l-3.5 4.9 4.9 3.5M294 37.1l-3.5 4.9 4.9 3.5M298.2 36.4l-3.5 4.9 4.9 3.5" class="g"/><path d="m302.4 35.7-3.5 4.9 4.9 3.5" class="g"/><path d="M175.7 30.6c-1.6-1.8-3.9-2.9-6.5-2.8-3.6.2-7.1 2.6-7.4 5.9-3.5 1-6.1 4.3-6 8.1.2 2.3 1.3 4.4 2.9 5.8-.4 1.2-.3 2.6.4 4 .4.7 1.1 1.4 1.9 1.7 1.4.7 2.8.7 3.9.2l.1 6.6c0 .4.5.5.7.2l3.5-4.9c3.2 1.3 6-.7 6.2-3.6.9.4 1.8.6 2.9.6 2.9-.1 5.2-2.5 5.4-5.3 1.6.9 3.7 1.1 5.8.1 1.2-.6 2.1-1.6 2.5-2.8 1.6-4.2-1.5-8.1-5.4-8" class="e"/><path d="M163 44.4c-1.9.1-3.5 1.3-4.2 2.9M183.7 46.6c-.2-3.2-2.9-5.6-6-5.5M189.1 36.8c-2-.7-3.9-.5-5.3.3M186.6 36c-.2-3.8-3.4-6.8-7.3-6.6-3.8.2-6.8 3.4-6.6 7.3" class="e"/><path d="M180.5 32c-2.5.1-4.5 2.3-4.4 4.8M176.5 49.6c2.2.2 4.2-1.5 4.4-3.7M189.4 43.6c.6-2-.4-4.1-2.3-4.7M161.2 49c.5 1.4 2.1 2.3 3.5 1.8M167.9 34.8c-1.7-1.1-3.8-1.6-6-1.1M160.6 37.2c-1.1.9-1.9 2.2-1.9 3.8" class="e"/><path d="M352.7 55.8h6.1c.8 0 1.3-.6 1.3-1.3V34.3c0-.7-.5-1.3-1.3-1.3h-29.3c-.7 0-1.3.6-1.3 1.3v3.8"/><path d="M352 38.7h-25.9c-.8 0-1.3.6-1.3 1.3v17.9c0 .8.5 1.3 1.3 1.3h1.8c.1 0 .3.2.3.4v6.9c0 .3.3.5.5.3l9.4-7.5q.1-.1.2-.1H352c.7 0 1.3-.5 1.3-1.2V40c0-.7-.6-1.3-1.3-1.3zM327.4 44.8h21M327.4 47.9h21M327.4 51.6h21" class="e"/><path d="M402.5 46.7q-1 0-1.8.4c-.6-3.3-3.4-5.8-6.9-5.8-3.4 0-6.3 2.5-6.9 5.8q-.8-.4-1.8-.4c-2.3 0-4.3 2.1-4.3 4.5s2 4.6 4.3 4.6h17.4c2.4 0 4.3-2.2 4.3-4.6s-1.9-4.5-4.3-4.5" class="k"/><path d="M397.4 39.7c-1.1-.5-2.3-.8-3.6-.8q-1.5 0-2.8.5M399.5 37.6c-1.6-1-3.6-1.6-5.7-1.6-1.8 0-3.6.5-5.1 1.3M401.4 35.3c-2.1-1.6-4.7-2.5-7.6-2.5-2.5 0-4.9.7-6.9 2" class="e"/><path fill-rule="evenodd" d="m87.2 45.2 1.3 2.7c.1.3.2.4-.1.6l-1 .4c-.2.1-.3.5-.3.8.3 1.1.3 2.4.2 3.7 0 .2.2.5.5.6l1 .3c.4.2.5.5.4.9l-.9 2.6c-.2.4-.5.5-.9.4l-1.2-.4c-.2-.1-.6 0-.7.3-.7 1-1.7 2.1-2.7 2.9-.2.1-.4.5-.3.8l.6 1.2c.1.3.2.4-.1.6l-2.6 1.2c-.4.2-.8.2-.9-.1l-.6-1.2c-.1-.3-.4-.4-.7-.4q-1.7.4-3.6.2c-.3-.1-.6.1-.7.4l-.3 1.1c-.1.3-.5.5-.9.4l-2.6-.9c-.3-.1-.5-.5-.4-.8l.5-1.2c.1-.2 0-.6-.3-.7-1-.7-2-1.6-2.7-2.5-.2-.2-.5-.3-.8-.2l-1.2.5c-.3.2-.7.2-.8-.1l-1.3-2.6c-.1-.3.1-.7.4-.9l1.2-.5c.3-.2.4-.5.3-.8-.3-1.4-.3-2.6-.2-3.8.1-.3-.1-.6-.4-.7l-1.4-.5c-.3-.1-.4-.5-.3-.8l.9-2.7c.1-.3.5-.5.8-.4l1.3.5c.3.1.6 0 .7-.2q1-1.6 2.4-2.7c.2-.2.3-.5.1-.7l-.6-1.3c-.1-.3 0-.9.3-1.1l2.7-1.2c.3-.2.5.3.7.6l.6 1.2c.1.3.5.4.8.3 1.2-.2 2.6-.4 3.8-.2.3 0 .6-.2.7-.4l.5-1.4c.1-.3.5-.5.8-.3l2.7.9c.3.2.5.5.4.8l-.4 1.4c-.1.3 0 .6.2.7 1.1.7 2 1.4 2.8 2.6.2.2.6.3.8.2l1-.4c.3-.2.4 0 .5.3m-5.8 4.2c-1.5-3-5.1-4.3-8.1-2.9-3.1 1.5-4.4 5.1-2.9 8.1 1.4 3.1 5.1 4.4 8.1 2.9 3-1.4 4.3-5.1 2.9-8.1" class="k"/><path d="M80.3 242.2h294.8" class="b"/><path fill-rule="evenodd" d="M403.4 150.4c-2.5.3-4.8-.6-6.5-2.1-1.5-1.4-2.4-3.2-2.7-5.3-.2-2.3.4-4.5 1.8-6.1L391.5 90l11.8-1.2 4.6 46.9c1.8 1.9 2.8 3.8 3 5.6.2 2.2-.4 4.4-1.9 6.1-1.4 1.7-3.4 2.8-5.6 3zm1.1-6.2q.1-.1.1-.2.2-.2.3-.5v-.1q.2-.6.2-1.3l-.1-.1c0-1.1-1.3-2.1-2.4-2.1-1.1-.1-2.3.6-2.6 1.7v.1q0-.2.1-.4c-.2.6-.4 1.1-.3 1.8.1.6.6 1.3 1.1 1.7 1.1.7 2.9.6 3.6-.6z" class="e"/><path d="m395.1 89.9 4.5 46.8M399.7 89.4l4.6 46.8M407.3 83.8c-.6-5.5-5-9.7-10.6-10l-1.8-.1 4.8 8.9-7.2 3.9-4.8-9.2-1 1.4c-1.4 2.2-2.1 4.8-1.8 7.4.3 2.8 1.5 5.3 3.6 7.1q.2.3.5.5c2.3 1.9 5.2 2.7 8.2 2.4 6.2-.6 10.7-6.1 10.1-12.3z" class="e"/><path d="m419.6 99.4 3.3-.1 4.4 38.8-3.3.1z"/><path d="M412.4 72.5q.1-.2.2-.3c1.1-1.4 2.7-2.3 4.4-2.4 3.5-.4 6.8 2.2 7.2 5.9l4.5 37.7-12.4 1.7-5.1-37.9c-.2-1.7.2-3.4 1.2-4.7zM417.5 133l5.4-6.7 3 .1 6 4.9-1.8 15.7-8.2.9z" class="e"/><path d="m419.3 105-4.5-34.7M423.6 104.5l-4.4-34.7M428.4 110.4l-12.7 1.2" class="i"/><path d="m428.5 142.7.7-8.7" class="e"/><path d="M419.3 243.7c1 4.1-3.2 6.2-3.2 12.5"/><path d="M373.5 259.1H81.3c-.6 0-1-.4-1-1v-14.9c0-.5.4-1 1-1h292.2c.6 0 1 .5 1 1v14.9c0 .6-.4 1-1 1" class="k"/><path d="M373 263v-22" style="fill:none;stroke:#ffbf00;stroke-miterlimit:10;stroke-width:3"/><path d="M103.2 291.4h-5.3c-13.2 0-24-10.7-24-23.9v-20.9c0-3.1 2.5-5.6 5.6-5.6h23.7c13.3 0 24 10.7 24 23.9v2.6c0 13.2-10.7 23.9-24 23.9"/><path d="M100.6 279.7h-1.4c-7.3 0-13.3-5.9-13.3-13.2v-1.4c0-7.3 6-13.3 13.3-13.3h1.4c7.3 0 13.2 6 13.2 13.3v1.4c0 7.3-5.9 13.2-13.2 13.2" class="c"/><path d="M138.8 250.4v-8.1" class="b"/><path d="M146.2 247.9v-5.6M153.5 247.9v-5.6M160.9 247.9v-5.6M168.3 247.9v-5.6" class="d"/><path d="M175.6 250.4v-8.1" class="b"/><path d="M183 247.9v-5.6M190.4 247.9v-5.6M197.7 247.9v-5.6M205.1 247.9v-5.6" class="d"/><path d="M212.5 250.4v-8.1" class="b"/><path d="M219.8 247.9v-5.6M227.2 247.9v-5.6M234.6 247.9v-5.6M241.9 247.9v-5.6" class="d"/><path d="M249.3 250.4v-8.1" class="b"/><path d="M256.7 247.9v-5.6M264 247.9v-5.6M271.4 247.9v-5.6M278.8 247.9v-5.6" class="d"/><path d="M286.1 250.4v-8.1" class="b"/><path d="M293.5 247.9v-5.6M300.8 247.9v-5.6M308.2 247.9v-5.6M315.6 247.9v-5.6" class="d"/><path d="M322.9 250.4v-8.1" class="b"/><path d="M330.3 247.9v-5.6M337.7 247.9v-5.6M345 247.9v-5.6M352.4 247.9v-5.6" class="d"/><path d="M99.9 276.3c-5.6 0-10.1-4.5-10.1-10.1s4.5-10.1 10.1-10.1 10.1 4.5 10.1 10.1-4.5 10.1-10.1 10.1"/><path d="M43 284.5c2.5-.2 5.1 0 7.5.7q1.7-6.3 3.1-12.6c.6-2.8.2-5.3-2.9-5.9-2-.3-3.7.4-4.8 2-2.6 3.9-2.7 11.4-2.9 15.8" class="j"/><path d="M62.7 289c-1 2.5-4 2-6.1 2q-4.8 0-9.7-.4c-2.1-.1-5.5-.8-4.9-3.6q.5-1.9.9-3.8c0-.3.2-.6.5-.7h.3c1.1.2 2.4.7 3.6.4 1-.2 2.2-.7 3.3-1.1.2-.1.5-.2.8-.1.6.2.8.9 1.3 1.3.6.5 1.3.7 2 .9 2 .7 3.9 1.2 6 1.5 1.5.2 2.6 1.6 2.2 3.2z" class="c"/><path d="M92.6 235.7c2.5-.2 5.1 0 7.5.7q1.7-6.2 3.1-12.6c.6-2.7.2-5.3-3-5.8-1.9-.4-3.7.3-4.7 1.9-2.6 3.9-2.8 11.4-2.9 15.8" class="j"/><path d="M112 239.8c0 .7-.5 1.5-1.2 1.9-1.4.7-3.2.5-4.7.5q-4.8 0-9.6-.3c-2.2-.2-5.5-.8-4.9-3.7q.4-1.9.8-3.7c.1-.3.2-.7.5-.8h.3c2 .3 3.6 1.3 5.5.3.7-.3 1.3-.8 2-.8.9-.1 1.4 1.1 2 1.6.9.7 2 1.1 3 1.4q1.9.7 3.9 1c.4.1.8.2 1.2.4.9.5 1.3 1.4 1.2 2.2" class="c"/><path d="M72.5 197c1.4.5 2.9 1.2 3.8 1.4 6.8 1.5 14 .7 20.2-2.4 2.8-1.4 5.4-3.3 7.1-5.8 1.5-2.3 3.5-5.9 2.1-8.6-1.3-2.7-6.1-3.5-8.7-4.4q-5.2-1.6-10.5-2.8c-8.1-1.8-15.9.7-24-1.1-5.4-1.3-10.7-3.1-15.7-5.7.1.1-3.9 10.8-4.2 11.8-1.2 5-1.5 10.3.3 15.2.4 1.3 1.1 2.5 1.3 3.9s0 2.9-.2 4.3c-1.1 7.4-.9 14.9.4 22.2.5 2.5.7 5.3 1.4 7.7.6 2.1 2.2 3.9 1.6 6.2-.1.6-.3 1.1-.6 1.6-.7 1.7-1 3.6-1 5.4 0 1.2.1 2.4 0 3.6 0 1-.2 1.9-.4 2.9-1.6 8.1-3.6 15.8-3.8 24.2 0 .2 15.3 2.8 16.3 1.8 1.4-1.4 1.7-5.6 2.1-7.4q1-3.8 1.8-7.6 1.9-7.8 3.5-15.6c1.6-8.3 4-16.8 3.4-25.3q-.6-7.9-.8-15.8c0-2.3-1.8-7.8 0-9.6 1-1.1 2.8-.7 4.6-.1"/><path d="M109.6 204.5q-.1-.5-.2-1.1c0-1.2.1-2.3.2-3.5.5-4.7 0-9.5-1.5-14-.9-2.9-2.3-5.2-4.9-6.7-2.6-1.4-6-1-8.5.5-2.6 1.6-5.2 4.9-5.7 7.9-.6 3.5-.3 7.1-.2 10.6v3.3c-.2 3.3 1.3 5.8 1.7 8.9.5 3.6.4 7.7.3 11.4-.1.6-.2 1.6-.3 2.9-.1.5.3.9.8.9 3.3-.1 14.2 0 17.4.2.5 0 .8-.3.9-.8l.9-9.3c.2-2.2.5-4.6 0-6.8-.3-1.4-.7-2.9-.9-4.4M51.5 145c.4-1.6 1-3.2 1.6-4.8 1.4-3.6 3.1-7.2 5.7-10.1 5.2-5.8 14.5-7.3 19.3-.1 2.5 3.8 1.6 9.3.9 13.5q-1.8 12.9-3.6 25.7c-.5 3.4-1.4 6.4-5.1 7-3 .5-5.9 1-8.9 1.4-3.4.4-11.2 2.4-13.3-1.1-2.5-4.2-1.2-8.2-.3-12.6.8-4.4 1.4-9 2.5-13.3.3-1.8.6-3.5 1.1-5.2q0-.2.1-.4"/><path d="m72.8 175.7 1.6 1c3.8 2 7.7 3.9 11.7 5.6 3.1 1.3 6.1 3.3 9.5 3.9 3 .5 6.8.2 9-2.2.6-.7 1.1-1.5.9-2.4-.1-.8-1.2-1.5-1.9-1.1-.2.2-.4.3-.6.5-.7.7-1.8.8-2.8.7-1.1 0-2.1-.2-3.1-.1-.3 0-.7.1-1.1 0s-.7-.3-1-.6c-2.3-1.9-4.9-3.7-6.8-6.1-.8-1-1.4-2.2-2.1-3.3-1.2-1.7-2.7-3.2-4.5-4.3-3.4-2.2-4.7-5.3-6.4-8.9-.5-1.1-1-2.2-1.3-3.4-.4-1.5-.4-3.1-.6-4.7-.4-2.2-1.2-4.4-2.2-6.4-.9-1.8-1.9-3.7-3.4-5.1s-3.6-2.3-5.6-1.9c-2.5.4-4.4 2.6-5.1 5.1-.7 2.4-.5 5-.2 7.6.3 2.4.6 4.9 1.8 7 1.1 2.1 2.7 3.9 3.8 5.9 1.2 2 1.7 4.1 2.7 6.1 1.5 3.2 4.5 5.3 7.7 7.1M96.3 91.1q.4-.8.7-1.6c.6-1.3.9-2.7 2.8-2.3 1.3.3 2 1.9 2 3.2 0 1.7-.6 3.2-1.2 4.8s-.6 3.5-1 5.1c-.4 2-.9 4.1-2.1 5.7-.9 1.2-2.2 2.1-3 3.4-.5.8-.7 1.8-1 2.7-.8 3.1-1.2 6.5-2.3 9.5-1.2 3.3-2.8 6.4-4.9 9.2-1.4 2-3 4-5.2 5-1 .4-2 .6-3.1.7-1.3.1-2.8 0-3.8-.9-1.8-1.5-1.9-4.7-1.4-6.8.6-3 1.9-5.8 3.7-8.2 1.3-1.6 2.6-3.3 3.9-4.9 1.6-1.9 2.8-4 4.5-5.9.7-.8 1.4-1.6 1.9-2.5.3-.8.5-1.8.7-2.6.7-2.7 2-5.3 3.8-7.4.9-.9 1.8-1.8 2.7-2.8.8-1 1.6-2.2 2.3-3.4" class="j"/><path d="m80.8 125.2-.3-.3c-1.4-1.6-2.9-3.6-4.5-5-1.5 2.5-2.9 5.1-4.3 7.7-.5.9-1 1.8-1.3 2.8-1.3 4 .6 9.2 2.9 12.7.7 1.2 2.3 3.3 4 2.7 1.6-.6 2.6-4 3.3-5.4.9-1.7 1.8-3.4 2.9-5 .7-.9 1.5-1.7 2.2-2.6.6-.9.7-1.1.1-2-1.3-2-3.4-3.8-5-5.6"/><path d="M64.9 121.8c.5-1.5.9-3.1 1-4.9.2-1.9.2-3.9.9-5.8 1.1-2.8 5.1-4.6 7.9-3.9 4.1 1 2.9 7.8 2.5 10.8-.2 1.5-1.3 2.5-2.1 3.8-1.3 2-1.5 5.4-1.7 7.7 0 .3 0 .6-.2.8-.2.3-.5.4-.8.4-1.7.4-3.3.8-5 .7-2.2 0-5.7-.8-4.6-3.6.7-2.1 1.5-4 2.1-6" class="j"/><path d="M76 102.4h-.1c-1.5 0-2.8.9-3.6 2.1-.2.2-.3.4-.5.6-.2.1-.5.1-.7.1-1.7.1-3.4.9-4.5 2.2-1.2 1.2-1.7 2.8-1.8 4.4-.1 1 0 1.7.2 2.6.2.7.1 1.1.2 1.7.3 1.7 1.7 1.6 2.6.2.4-.8.7-1.7 1.1-2.6.4-1.1.9-2.2 1.9-2.9.9-.7 2-.9 3.1-1.1 1.2-.1 2.3-.3 3.3-.9 2.5-1.6 2.2-6.2-1.2-6.4"/><path d="M70.2 113.3c-.5-.9-1.5-1.2-2.4-.8-1 .6-1.5 2-1.3 3s1.2 1.7 2 1.1c.4-.1.8-.3 1.1-.6.6-.7 1.1-1.8.6-2.7" class="j"/><path d="M75.6 116.6c-.4.1-.7.4-1.1.2s-.8.4-.4.6c.6.3 1.6.4 1.9-.3.1-.3-.1-.6-.4-.5M68.6 114.4c-.1-.5-.8-.3-.7.2 0 .4 0 .7.3 1 .1.2.4.1.5-.1.1-.4 0-.7-.1-1.1M69.9 169.9c-.4-.1-.7-.1-1-.3-.4-.2-.5-.5-.5-.9-.1-.5-.7-.6-.9-.2-.2.7.1 1.4.5 1.8.5.5 1.3.9 1.9.5.2-.2.4-.7 0-.9"/><path d="M67.3 195.5c-1.2-1.3-2.8-2-4.4-2.3-1.3-.3-2.6-.1-3.8.1q-.2.3-.4.7c1-.1 1.9-.2 2.9-.2 2.1.1 3.6 1 5.3 2.1.3.2.6-.2.4-.4" class="a"/><path d="M54.4 142.5c-.2 4.3.8 8.6 1.8 12.8 1.9-1.8 4.5-2.6 7-3.4q4-1.2 8-2.5c.7-.2 1.6-.5 1.8-1.3.1-.3.1-.5 0-.8-.6-5.8-4-11.2-8.8-14.4-2.9-2-4.5-2.5-6.7.5-2 2.6-2.9 5.9-3.1 9.1"/><path d="M67.4 135.8c-.2-.1-.3.1-.2.2 1.5 1.7 2.8 3.3 3.7 5.3 1.1 2.2 1.6 4.6 2.5 6.9 0 .2.3.1.3-.1-.8-4.3-2.6-9.6-6.3-12.3" class="a"/><path d="M75.7 119.9c-.2 0-.5.1-.7 0-.1 0-.2.2-.1.3.4.2.7.2 1 0 .1-.2-.1-.4-.2-.3"/><path d="M101.7 181.3h-3.1c-.9 0-1.6-.8-1.6-1.7v-106c0-.9.7-1.6 1.6-1.6h3.1c.9 0 1.6.7 1.6 1.6v106c0 .9-.7 1.7-1.6 1.7z" class="e"/><path d="M101.8 167.4h-5.1" class="b"/><path d="M100.3 162.8h-3.6M100.3 158.1h-3.6M100.3 153.5h-3.6M100.3 148.9h-3.6" class="d"/><path d="M101.8 144.3h-5.1" class="b"/><path d="M100.3 139.6h-3.6M100.3 135h-3.6M100.3 130.4h-3.6M100.3 125.7h-3.6" class="d"/><path d="M101.8 121.1h-5.1" class="b"/><path d="M100.3 116.5h-3.6M100.3 111.8h-3.6M100.3 107.2h-3.6M100.3 102.6h-3.6" class="d"/><path d="M101.8 98h-5.1" class="b"/><path d="M100.3 93.3h-3.6M100.3 88.7h-3.6M100.3 84.1h-3.6M100.3 79.4h-3.6" class="d"/><path d="M101.8 85.5q.3 1.5.7 2.9c.1.2.1.4.3.6s.6.3 1 .2c.3 0 .6-.3.9-.5 1-1 1.4-2.4 1.4-3.8 0-1.2-.6-3.8-2.4-3.2-1.4.6-2.2 2.4-1.9 3.8" class="j"/><path d="M94.1 106.5c-.3.2-.5.3-.8.4-.6.1-.3 1 .2.8.4-.1.8-.3 1.1-.7.1-.3-.2-.6-.5-.5"/><path d="m456.4 297.1.2.2c.2.1.5.3.6.5.2.3.3.7.4 1 .5 1.9.7 4 .2 5.9-.6 2.2-1.6 3.8-.4 6.1 1.5 3 4.1 1 5.3-1.1 1.3-2.1 1.4-4.6 2.5-6.9q1.9-4.1 3-8.4c.2-.6.3-1.2.1-1.7s-.7-.7-1-1c-3-1.8-6.3-2.9-9.5-4.1-1.3-.4-2.2-1-3.3-.3-1.5.9-3.3 4.4-2.8 6 .4 1 1.2 1.8 2.1 2.4.8.5 1.8.9 2.6 1.4" class="c"/><path d="M455 284.5c-5.3-3-13.5-6.2-14.7-6.7-2.1-.8-4.6-.9-6.8-1.5.4-1.4 1.4-2.7 2.2-4 1.4-2.4 1.4-4.6 1.8-7.2.4-2.1 1.7-3.7 3-5.5 2.7-4.1 4-8.8 4.1-13.7s-1.1-9.9-3.5-14.3c-4-7.4-14-17.2-23.2-11.4-7.9 5-.5 16.6-.7 23.5-.1 4-2.3 7.5-3.1 11.4-.9 4.1 0 8.1-.4 12.1-.2 2-.8 3.9-1.4 5.8-1.5 3-2.1 7.4-2.2 9.8 0 .9 0 1.9.3 2.8.5 1.7 1.8 3.1 3.3 4.2 3.5 2.9 9.6 4.2 13.8 5.9 7.8 3 16 5.2 23.9 7.7 3.5-4.5 6.2-9.5 8-14.9.3-1-1.6-2.5-4.4-4M385.4 194c-2.3.5-4.5 2.3-6.2 3.5-2.6 2-4.8 4.4-7.2 6.6q-.1.2-.3.4-.3.2-.5.4.2.5.5 1c3.1 5 6.5 9.7 9.9 14.5 4.4-5 7.3-11.3 7.9-18 .1-.9 0-2.2-.2-3.5q-.2-.5-.5-.9c-.8-1.5-2.2-2.7-3.4-4"/><path d="M411.6 238.7c2.4-1.4 4.7-3 7.1-4.4 5.6-3.3 10.8-7.2 16.3-10.7-5.5-8.4-12-16.2-17.4-24.7-1.4-2.1-2.7-4.1-4.2-6-2.1-2.6-4.8-4.7-7.9-5.8s-7.1-.4-10.3.1c-3.7.6-7.2 2.1-9.8 4.7-1 1-1.7 2-2.5 3.1-3.8 5.2-4.9 9.7-1.6 15.5 1.7 3.2 4 6 6.2 8.8 1.3 1.8 14.5 16.9 17.1 23z"/><path d="M435 223.6c-1.3.9-2.6 1.6-4 2.2q-10.9 5.4-22 10.4"/><path d="M408.7 200c5.6.1 10.7 6.1 10.5 11.5-.2 2.7-1 5.2-1.4 7.8-.8 4.7-.8 9.2-2.6 13.6-1.7 4-4.6 7.4-8.4 9.6-2.1 1.2-4.4 2-6.4 3.4-1.2.9-2.3 1.9-3.5 2.6-2.9 1.7-6.7 2.4-9.8 3.5-1.5.5-3 1.1-4.4 1.9-1.4.9-2.5 2.2-3.9 3-2 1.1-4.6 1.6-6.8 1.6-1.1-.1-2.2-.2-3.1-.8-.8-.5-2-1.1-2.2-2.1s.7-2.1 1.5-2.6c1.4-.7 3.1-.3 4.6-.8 1.6-.5 1.8-1.9 1.7-3.4q.3-.2.6-.1c2 .8 4.2-.9 5.7-2 1.4-1.1 2.6-2.3 3.8-3.5 2.4-2.5 4.6-5.1 7.2-7.4 1.5-1.3 3.6-1.9 4.5-3.7 1.3-2.4.7-5.4 2-7.8.6-1 1.4-1.9 1.8-3s.2-2.3 0-3.5c-.3-2.9-.1-5.9.4-8.7.6-2.7 1.5-5.3 3.4-7.2 1.4-1.3 3.1-1.9 4.8-1.9" class="j"/><path d="M399.4 215.3c1 .3 2.3.1 3.6 0 5.8-.2 11.5-1.3 17-3.1.7-.2-2-10.4-2.3-11.4-1.4-4-3.6-6.2-6.1-9.4-2.5-3-6.5-5.3-10.3-4.3-3.5.9-5.9 4.6-6.4 8.2-.6 3.7.3 7.4 1.1 11 .6 2.3.7 5.8 1.9 7.8.4.7.9 1 1.5 1.2M374.3 189.5c.2.4.2.3.3 0-.2-2-2.2-4.6-1.1-5.6.1 0-.2-1.3-.4-1.1-.4.3-1.1.9-1.1 1.3-.1 1.4 1.5 4.2 2.3 5.4"/><path d="M390.2 192.6c-.9-1.8-2.2-3.5-3.2-5.1-1.5-2.3-2.4-7.1-5.7-7.7-1.2-.3-3 .6-4.2 1.1-1.1.6-3.7.7-4.3 1.8-.4.8.1 3.2 1 5.3h-.1c-.5.3-.7 1.1-.4 1.8.4.7 1.1 1.1 1.7.8q.1 0 .2-.1c.2.4 1.1 1.5 1.4 1.9 1.4 1.5 3 2.3 4.7 1.9.2 0 1.6 2.8 1.7 3.1.5.9.9 1.7 1.9 1.9 1.1.3 2.1.4 3.1.2 1.1-.2 2.1-.7 2.6-1.6.5-.8.6-1.8.5-2.8-.2-.8-.5-1.7-.9-2.5" class="j"/><path d="M368.8 179.6v-.1c.6-1.1 1.6-1.9 2.7-2.4.6-.2 1.2-.3 1.7-.2.6.1 1.1.6 1.1 1.2 3-2.7 6.9-2 9 1.3.5.7 3.7 5.6 1.8 6.1-.2 0-.4-.1-.6-.2-.9-.5-1.5-1.3-2.2-2.1-.8-1-2-2.2-3.5-1.8-1.9.6-3.1 2-4.9 2.9-1.4.6-3.2.2-4.4-.7-1.5-1-1.6-2.5-.7-4"/><path d="M384.7 183.3c-.4-.3-.9-.3-1.3 0-.5.1-.8.8-.8 1.2.1.7.5 1.4 1.1 1.7 1.7.6 2.2-2.1 1-2.9" class="j"/><path d="M380.2 190.6c-.4.1-.7.3-1 .7-.1.1.1.4.3.3l.9-.3c.4-.2.2-.9-.2-.7M382.4 193.3c-.3.2-.6.5-1 .8-.3.1-.1.6.2.5.5-.2 1.1-.5 1.3-1 .1-.2-.3-.4-.5-.3M384.6 185q-.1-.2-.2-.3c-.3-.4-.9.1-.6.4l.2.4c.1.1.3.1.4.1.1-.1.2-.1.2-.2.1-.1.1-.3 0-.4M374.7 189.4c.1-.5-.6-.6-.7-.1 0 .3.1.6.4.8q.3 0 .3-.3c.1-.1 0-.3 0-.4M409.8 236c-.4.5-1 .9-1.3 1.4-.2.4.1.7.5.7.8-.1 1.3-1 1.7-1.6.4-.5-.5-1-.9-.5M364.3 231c-.4.3-.7.6-1.2.6s-.5.7 0 .8c.7 0 1.5-.3 1.7-1 .2-.4-.3-.6-.5-.4"/><path d="M416.9 241.6c-.1-.2-.4-.2-.4.1-.2 1.1 0 1.7.3 2.7.4 2.1-.1 3.8-.9 5.6-.9 2.1-2.1 4.3-1.9 6.7 0 .3.5.4.6.1 1.1-5.1 5.4-10 2.3-15.2M400.4 201.9c.1-.2-.2-.3-.3-.1-1.8 4-1.1 9.4.1 13.6 0 .1.2.1.2-.1-.4-4.8-1-8.6 0-13.4M385.2 215.9c-1.2-1.7-2-3.3-2.7-5.2-.1-.3-.5-.2-.4.1.4 1.9 1.5 3.8 2.8 5.3.2.2.5-.1.3-.2M417.8 204.7c-.1-.2-.4-.1-.3.2.8 2.3 1.5 4.6 1.9 7.1 0 .1.3.1.3-.1-.2-2.5-.8-4.9-1.9-7.2" class="a"/><path d="M334.9 243.2q-.5 1.2-.9 2.5c-.1.2-.2.6-.5.7-.4.2-.9-.2-1-.6-.2-.4-.1-.9 0-1.3.2-1 .2-2 .5-2.9.2-.9.7-1.9 1.5-2.4 1.1-.7 2.5-.5 2.2.8-.2.9-1.5 2.2-1.8 3.2" class="j"/><path d="M41.9 291.5H327" class="b"/><path d="M159.4 296h101" class="d"/><path d="M320.9 312.6h148.5M258.9 312.6h48.5" class="b"/><path d="M260.1 389.5q-.6.7-1.1 1.4l-.5-.2c0-.3-.3-.5-.6-.5-.4.1-.6.4-.6.7.1.3.4.6.7.5h.2l.4.2q-.3.9-.5 1.8l.8.1c.2-1.3.8-2.5 1.7-3.5zM265.6 387.2h-.5l-.1-.6c.2-.2.3-.4.3-.7-.1-.4-.4-.6-.8-.6-.4.1-.7.4-.6.8 0 .3.1.5.4.6v.6q-1 .2-2 .6l.3.7q1.4-.7 3-.7.7 0 1.5.2l.1-.7q-.8-.2-1.6-.2M272.2 389.7c.3 0 .6-.3.5-.6 0-.4-.3-.6-.7-.6-.3.1-.5.3-.5.6l-.4.4q-.6-.6-1.4-1.1l-.4.6c1.1.7 2 1.7 2.6 2.9l.6-.3q-.3-.8-.9-1.5l.4-.4zM265 397.4h-1.1c-.9 0-1.7 0-2.5-.1-.4-.1-.8-.2-1.3-.3 1.1 1.8 3.1 3.1 5.4 3.1 2.9 0 5.3-1.9 6-4.5q-1 .7-2.5 1.1c-1.2.4-2.5.6-4 .7" class="m"/><path fill-rule="evenodd" d="M271.6 393.9q.1.3.1.6c-1.4 1.2-3.8 2-6.7 2.1-2.6.2-4.7-.2-5.4-.7q-.1-.6-.1-1.3c0-3.2 2.7-5.9 6.1-5.9 3 0 5.6 2.2 6 5.2m-6.3-.5c0-1-.8-1.9-1.9-1.9-1 0-1.8.9-1.8 1.9s.8 1.8 1.8 1.8c1.1 0 1.9-.8 1.9-1.8m4.2-.4c0-.8-.6-1.4-1.3-1.4-.8 0-1.4.6-1.4 1.4 0 .7.6 1.3 1.4 1.3.7 0 1.3-.6 1.3-1.3" class="m"/><path d="M281.6 390.6c-.3-.1-.8-.3-1.4-.3-.5.1-.8.4-.8 1v.9h2.2v1.7h-2.2v5.5h-2v-5.5h-1.3v-1.7h1.3v-.9c0-1.7.9-2.8 2.6-2.8.6 0 1.2.2 1.6.3zM286.3 393.9h-.5c-.9 0-1.5.5-1.5 1.6v3.9h-2v-7.2h1.9v.8c.5-.7 1.1-1 2-1 .4 0 .9.1 1.1.4z" class="m"/><path fill-rule="evenodd" d="M294 395.8c0 .2-.1.5-.1.6h-5.1c.3 1.1 1 1.5 1.9 1.5.6 0 1.3-.2 1.8-.7l1.1 1.3c-.8.7-1.8 1.1-3 1.1-2.2 0-3.7-1.5-3.7-3.8 0-2.2 1.4-3.8 3.6-3.8 2 0 3.5 1.5 3.5 3.8m-5.1-.7h3.1c-.2-.9-.7-1.4-1.5-1.4-.9 0-1.5.5-1.6 1.4M301.6 395.8v.6h-5.1c.2 1.1.9 1.5 1.8 1.5.7 0 1.3-.2 1.9-.7l1.1 1.3c-.8.7-1.9 1.1-3.1 1.1-2.2 0-3.7-1.5-3.7-3.8 0-2.2 1.5-3.8 3.6-3.8s3.5 1.5 3.5 3.8m-5.1-.7h3.2c-.2-.9-.8-1.4-1.6-1.4-.9 0-1.4.5-1.6 1.4M310 395.8c0 2.1-1.5 3.8-3.5 3.8-1 0-1.6-.4-2.1-1v3.7h-1.9v-10.1h1.8v.8c.5-.6 1.2-1 2.2-1 2 0 3.5 1.6 3.5 3.8m-5.7 0c0 1.1.7 2 1.8 2 1.2 0 1.9-.9 1.9-2s-.7-2-1.9-2c-1.1 0-1.8.9-1.8 2" class="m"/><path d="M313.1 389.9c0 .7-.6 1.2-1.3 1.2s-1.2-.5-1.2-1.2.5-1.3 1.2-1.3 1.3.6 1.3 1.3m-.3 9.5h-1.9v-7.2h1.9zM316 394.8l2.7-2.6h2.4l-3.5 3.4 3.5 3.8h-2.4l-2.7-2.9v2.9h-1.9v-10.7h1.9z" class="m"/><path fill-rule="evenodd" d="M184.4 399.3v-1c-.5.7-1.4 1.2-2.4 1.2-1.8 0-3.1-1.4-3.1-3.7s1.3-3.7 3.1-3.7q1.5 0 2.4 1.2v-3.8h1.1v9.8zm0-1.9v-3.2c-.4-.6-1.2-1.2-2.1-1.2-1.4 0-2.3 1.2-2.3 2.8s.9 2.7 2.3 2.7c.9 0 1.7-.5 2.1-1.1M186.9 395.8c0-2.1 1.5-3.7 3.5-3.7 2.2 0 3.4 1.6 3.4 3.8v.2h-5.7c.1 1.4 1 2.5 2.5 2.5.8 0 1.7-.3 2.2-.9l.5.7c-.7.7-1.6 1.1-2.8 1.1-2.1 0-3.6-1.5-3.6-3.7m3.5-2.8c-1.5 0-2.3 1.2-2.3 2.3h4.6c0-1-.7-2.3-2.3-2.3" class="m"/><path d="m194.6 398.4.6-.8c.4.5 1.3 1 2.3 1 1.1 0 1.7-.5 1.7-1.2 0-1.7-4.4-.7-4.4-3.3 0-1.1.9-2 2.6-2 1.2 0 2.1.4 2.7 1l-.6.8c-.4-.6-1.2-.9-2.1-.9s-1.5.4-1.5 1.1c0 1.5 4.3.5 4.3 3.3 0 1.1-.9 2.1-2.7 2.1-1.2 0-2.2-.4-2.9-1.1M201.5 390.5c0-.4.3-.8.7-.8.4.1.8.4.8.8s-.4.7-.8.7-.7-.3-.7-.7m.2 8.8v-7.1h1.1v7.1z" class="m"/><path fill-rule="evenodd" d="m204.6 401.1.5-.8c.6.7 1.3 1 2.3 1 1.2 0 2.3-.6 2.3-2.1v-1.1c-.5.8-1.4 1.3-2.4 1.3-1.8 0-3.1-1.4-3.1-3.7 0-2.2 1.3-3.6 3.1-3.6q1.5 0 2.4 1.2v-1.1h1.1v6.9c0 2.4-1.6 3.1-3.4 3.1-1.2 0-2-.2-2.8-1.1m5.1-3.8v-3.1c-.4-.6-1.2-1.2-2.1-1.2-1.4 0-2.3 1.2-2.3 2.7 0 1.6.9 2.7 2.3 2.7.9 0 1.7-.5 2.1-1.1" class="m"/><path d="M217.4 399.3v-4.6c0-1.3-.6-1.7-1.6-1.7-.8 0-1.7.6-2.1 1.1v5.2h-1.1v-7.1h1.1v1.1c.5-.6 1.5-1.2 2.6-1.2 1.4 0 2.2.7 2.2 2.2v5z" class="m"/><path fill-rule="evenodd" d="M219.9 395.8c0-2.1 1.5-3.7 3.5-3.7 2.2 0 3.4 1.6 3.4 3.8v.2h-5.7c.1 1.4 1 2.5 2.5 2.5.8 0 1.7-.3 2.2-.9l.5.7c-.7.7-1.6 1.1-2.8 1.1-2.1 0-3.6-1.5-3.6-3.7m3.5-2.8c-1.5 0-2.3 1.2-2.3 2.3h4.6c0-1-.7-2.3-2.3-2.3M233.3 399.3v-1c-.5.7-1.3 1.2-2.3 1.2-1.9 0-3.2-1.4-3.2-3.7s1.3-3.7 3.2-3.7c.9 0 1.8.4 2.3 1.2v-3.8h1.1v9.8zm0-1.9v-3.2c-.3-.6-1.2-1.2-2.1-1.2-1.4 0-2.2 1.2-2.2 2.8s.8 2.7 2.2 2.7c.9 0 1.8-.5 2.1-1.1M239.7 399.3v-9.8h1.1v3.8q.9-1.2 2.4-1.2c1.8 0 3.1 1.4 3.1 3.7s-1.3 3.7-3.1 3.7c-1 0-1.9-.5-2.4-1.2v1zm3.2-.8c1.4 0 2.3-1.1 2.3-2.7s-.9-2.8-2.3-2.8c-.9 0-1.7.6-2.1 1.2v3.2c.4.6 1.2 1.1 2.1 1.1" class="m"/><path d="M247.5 401.1c.2.1.5.1.6.1.5 0 .8-.2 1.1-.7l.5-1.1-3-7.2h1.2l2.3 5.8 2.4-5.8h1.2l-3.6 8.6c-.4 1-1.1 1.4-2 1.4-.3 0-.6-.1-.8-.1z" class="m"/></svg>